<svg 
    fill="currentColor" 
    stroke="none" 
    viewBox="0 0 862 305" 
    xmlns="http://www.w3.org/2000/svg"
>
    <path d="M87.221,260.020154 C87.221,246.938154 80.016,239.733154 68.071,239.733154 C66.365,239.733154 64.089,239.923154 62.004,240.112154 L62.004,267.038154 C62.004,270.449154 62.004,273.863154 63.33,276.138154 C64.659,278.603154 67.691,279.550154 71.674,279.550154 C80.965,279.550154 87.221,272.155154 87.221,260.020154 M62.004,193.847154 L62.004,220.962154 C63.9,221.149154 65.606,221.149154 66.744,221.149154 C78.69,221.149154 82.861,212.808154 82.861,202.378154 C82.861,191.192154 78.31,182.849154 69.779,182.849154 C67.124,182.849154 64.28,183.418154 63.141,185.313154 C62.004,187.209154 62.004,189.864154 62.004,193.847154 M138.036,260.210154 C138.036,291.495154 103.908,300.409154 83.619,300.409154 C61.624,300.409154 53.281,299.649154 44.18,299.649154 C36.785,299.649154 30.339,300.219154 23.513,300.219154 C8.344,300.219154 0,297.185154 0,288.653154 C0,282.774154 5.31,279.740154 7.775,278.224154 C11.946,275.569154 11.946,273.863154 11.946,268.743154 L11.946,193.847154 C11.946,188.728154 11.946,187.020154 7.775,184.367154 C5.31,182.849154 0,179.626154 0,173.937154 C0,165.404154 8.344,162.372154 23.513,162.372154 C30.15,162.372154 37.164,162.749154 43.8,162.749154 C56.125,162.749154 71.105,161.992154 80.585,161.992154 C105.615,161.992154 130.075,170.903154 130.075,196.879154 C130.075,213.944154 119.076,221.719154 110.355,225.702154 C121.731,227.788154 138.036,238.594154 138.036,260.210154"></path>
    <path d="M270.5726,282.774054 C270.5726,286.188054 269.0536,288.653054 265.4526,291.308054 C255.7826,298.323054 237.3886,302.114054 228.2876,302.114054 C216.3426,302.114054 215.5836,295.099054 215.5836,281.635054 C209.7066,293.204054 198.5176,302.874054 181.8326,302.874054 C162.6816,302.874054 152.0656,289.600054 152.0656,267.795054 L152.0656,233.664054 C152.0656,229.304054 150.3576,227.408054 148.6516,226.080054 C146.1866,223.994054 143.7216,221.529054 143.7216,217.358054 C143.7216,213.944054 145.2376,211.102054 149.0306,208.825054 C158.8906,203.138054 176.9026,200.483054 186.0066,200.483054 C198.5176,200.483054 198.7086,208.068054 198.7086,223.047054 L198.7086,242.388054 L198.7086,248.454054 C198.7086,265.140054 200.7936,272.535054 207.2416,272.535054 C212.7406,272.535054 215.3936,267.984054 215.5836,252.058054 L215.5836,233.854054 C215.5836,230.063054 214.0676,228.167054 211.4126,226.080054 C208.9476,224.184054 206.2926,221.339054 206.2926,217.358054 C206.2926,214.134054 208.0016,210.912054 211.7926,208.825054 C221.8426,203.138054 240.4236,200.483054 249.5236,200.483054 C262.0386,200.483054 262.2276,208.068054 262.2276,223.047054 L262.2276,243.904054 L262.2276,266.468054 C262.2276,270.829054 263.9336,272.725054 265.6416,274.053054 C268.1066,276.138054 270.5726,278.604054 270.5726,282.774054"></path>
    <path d="M346.5999,245.799454 C346.5999,224.563454 342.9979,217.168454 336.3609,217.168454 C329.9139,217.168454 325.9339,223.994454 325.9339,245.799454 C325.9339,267.604454 329.9139,274.620454 336.1709,274.620454 C343.1889,274.620454 346.5999,266.089454 346.5999,245.799454 M401.0199,282.774454 C401.0199,286.188454 399.5009,288.653454 395.8999,291.307454 C386.6099,298.133454 368.9749,302.114454 360.2529,302.114454 C348.6859,302.114454 347.7389,295.478454 347.5489,282.964454 C341.2899,293.960454 329.7249,302.304454 315.5039,302.304454 C293.3199,302.304454 277.7729,281.825454 277.7729,252.247454 C277.7729,217.927454 298.2489,199.724454 325.3649,199.724454 C333.8959,199.724454 340.9129,201.619454 346.0309,204.274454 L346.0309,197.448454 C346.0309,191.761454 342.6199,189.484454 339.7749,187.589454 C335.9839,185.124454 332.3799,182.469454 332.3799,177.539454 C332.3799,174.127454 334.0849,171.282454 338.0689,168.818454 C349.0659,161.992454 369.3549,157.821454 379.2139,157.821454 C392.4859,157.821454 392.6759,165.593454 392.6759,180.763454 L392.6759,201.242454 L392.6759,266.468454 C392.6759,270.828454 394.3809,272.724454 396.0899,274.052454 C398.5549,275.948454 401.0199,278.603454 401.0199,282.774454"></path>
    <path d="M476.4787,245.799454 C476.4787,224.563454 472.8767,217.168454 466.2388,217.168454 C459.7928,217.168454 455.8118,223.994454 455.8118,245.799454 C455.8118,267.604454 459.7928,274.620454 466.0488,274.620454 C473.0667,274.620454 476.4787,266.089454 476.4787,245.799454 M530.8977,282.774454 C530.8977,286.188454 529.3787,288.653454 525.7777,291.307454 C516.4877,298.133454 498.8527,302.114454 490.1317,302.114454 C478.5637,302.114454 477.6177,295.478454 477.4267,282.964454 C471.1687,293.960454 459.6028,302.304454 445.3828,302.304454 C423.1978,302.304454 407.6508,281.825454 407.6508,252.247454 C407.6508,217.927454 428.1278,199.724454 455.2428,199.724454 C463.7738,199.724454 470.7897,201.619454 475.9097,204.274454 L475.9097,197.448454 C475.9097,191.761454 472.4977,189.484454 469.6528,187.589454 C465.8618,185.124454 462.2578,182.469454 462.2578,177.539454 C462.2578,174.127454 463.9638,171.282454 467.9468,168.818454 C478.9437,161.992454 499.2327,157.821454 509.0927,157.821454 C522.3647,157.821454 522.5537,165.593454 522.5537,180.763454 L522.5537,201.242454 L522.5537,266.468454 C522.5537,270.828454 524.2597,272.724454 525.9677,274.052454 C528.4327,275.948454 530.8977,278.603454 530.8977,282.774454"></path>
    <path d="M691.5097,238.215054 L699.6637,237.648054 C711.4197,236.888054 716.1597,232.528054 716.1597,226.459054 C716.1597,221.340054 712.7477,217.359054 706.6797,217.359054 C697.7687,217.359054 691.5097,226.270054 691.5097,238.215054 M752.3747,267.038054 C752.3747,272.345054 750.1007,278.414054 745.7387,283.913054 C737.9647,294.150054 723.1747,302.874054 702.8877,302.874054 C672.9287,302.874054 651.8827,282.205054 651.8827,253.384054 C651.8827,222.288054 675.7737,199.724054 706.6797,199.724054 C736.2587,199.724054 751.8057,219.064054 751.8057,234.044054 C751.8057,244.283054 745.3607,249.783054 733.2247,249.783054 L693.4077,249.783054 C696.8197,259.643054 705.3537,265.330054 717.8647,265.330054 C725.6397,265.330054 731.5187,263.624054 737.2077,260.400054 C739.8607,258.883054 742.5157,257.745054 745.1697,257.745054 C749.3427,257.745054 752.3747,260.590054 752.3747,267.038054"></path>
    <path d="M860.0717,267.794554 C860.0717,288.083554 841.4907,302.683554 816.6507,302.683554 C807.1707,302.683554 797.6897,300.788554 790.1047,296.615554 C788.7767,300.598554 785.5547,303.063554 780.8147,303.063554 C768.6787,303.063554 759.7657,287.134554 759.7657,274.620554 C759.7657,266.088554 764.5067,261.918554 769.6267,261.918554 C774.9357,261.918554 778.1597,265.519554 781.7607,269.690554 C791.2417,280.878554 799.7747,284.669554 806.0317,284.669554 C811.5307,284.669554 813.9957,282.015554 813.9957,278.793554 C813.9957,274.999554 810.7717,272.914554 798.8267,268.553554 C779.1067,261.348554 761.6647,253.953554 761.6647,234.803554 C761.6647,213.754554 780.2457,199.154554 804.8947,199.154554 C813.6167,199.154554 823.0967,201.052554 830.4917,205.223554 C831.8197,201.242554 835.0427,198.777554 839.2157,198.777554 C849.2647,198.777554 857.9857,213.187554 857.9857,224.184554 C857.9857,233.094554 852.2977,235.939554 847.7467,235.939554 C843.0067,235.939554 839.7827,232.907554 835.6117,228.544554 C828.9757,220.772554 820.8217,217.168554 814.9447,217.168554 C809.6347,217.168554 807.1707,219.633554 807.1707,222.668554 C807.1707,226.269554 810.0147,228.355554 821.7697,231.958554 C837.8857,236.888554 860.0717,245.419554 860.0717,267.794554"></path>
    <path d="M593.3047,288.964054 C593.3047,288.964054 575.1827,304.459054 559.6787,301.159054 C547.3587,298.536054 545.3507,285.915054 548.7967,269.551054 C552.2427,253.186054 569.3667,217.359054 593.3047,217.359054 C617.2427,217.359054 634.3667,253.186054 637.8127,269.551054 C641.2587,285.915054 639.3207,298.886054 626.9317,301.159054 C610.5757,304.159054 593.3047,288.964054 593.3047,288.964054"></path>
    <path d="M593.3107,157.821454 C611.8687,157.821454 612.6517,177.241454 611.2617,183.842454 C609.8717,190.442454 602.9657,204.891454 593.3107,204.891454 C583.6567,204.891454 576.7497,190.442454 575.3607,183.842454 C573.9707,177.241454 574.7527,157.821454 593.3107,157.821454"></path>
    <path d="M548.1857,186.994354 C561.2377,183.375354 568.8497,193.933354 571.5957,203.839354 C574.1357,213.001354 569.7457,218.618354 561.5457,220.890354 C549.8337,224.138354 541.3467,213.024354 538.8067,203.862354 C536.3007,194.824354 540.4867,189.128354 548.1857,186.994354"></path>
    <path d="M617.1887,205.844854 C618.0627,196.682854 624.2757,184.656854 635.9867,185.773854 C644.1857,186.554854 649.3187,191.166854 648.4457,200.328854 C647.5007,210.234854 642.0287,221.581854 628.9767,220.337854 C621.2797,219.603854 616.3277,214.882854 617.1887,205.844854"></path>
    <path d="M269.5716,65.2692545 C272.9856,63.5072545 274.4366,61.9362545 275.0996,59.4332545 C275.5666,57.5462545 275.3366,55.5032545 274.3726,53.6362545 C273.3646,51.6852545 271.6706,50.1932545 269.6986,49.5642545 C267.4816,48.8562545 265.3176,49.2532545 262.1496,50.8882545 L253.8616,55.1662545 L261.2856,69.5472545 L269.5716,65.2692545 Z M275.2146,100.325254 L266.3586,104.897254 C265.2366,105.476254 263.8566,105.036254 263.2776,103.914254 L237.4056,53.7812545 C236.8266,52.6592545 237.2666,51.2802545 238.3886,50.7012545 L257.7266,40.7222545 C265.6086,36.6542545 269.6856,35.7832545 275.1416,37.1852545 C280.3936,38.3872545 284.3616,41.6892545 286.9606,46.7262545 C289.8116,52.2522545 290.2166,58.2182545 288.1146,63.3152545 C286.2106,68.0022545 283.3416,70.6142545 275.7836,74.5152545 L266.8476,79.1282545 L276.1976,97.2452545 C276.7766,98.3672545 276.3366,99.7462545 275.2146,100.325254 L275.2146,100.325254 Z"></path>
    <path d="M331.6917,29.5895545 C330.9147,33.3565545 331.1937,38.7485545 332.5387,44.2585545 C335.6797,57.1415545 340.8817,62.6525545 348.2567,60.8525545 C355.3657,59.1205545 357.2927,51.9665545 354.1517,39.0835545 C351.0097,26.1975545 345.9857,20.6455545 338.7877,22.4005545 C334.8787,23.3535545 332.5357,25.7135545 331.6917,29.5895545 M356.5317,15.2505545 C362.3367,20.1405545 366.6407,27.3765545 368.7217,35.9055545 C370.6067,43.6355545 370.1327,52.5065545 367.3887,59.0125545 C364.5557,65.5395545 358.5607,70.2975545 350.5657,72.2465545 C342.8337,74.1315545 335.8987,72.7155545 330.2697,68.1585545 C324.3977,63.3755545 320.1127,56.2315545 318.0117,47.6125545 C315.9537,39.1705545 316.4657,30.8555545 319.3887,24.3045545 C322.3787,17.6465545 328.1287,13.0425545 336.1267,11.0935545 C344.1217,9.14455446 350.8577,10.5145545 356.5317,15.2505545"></path>
    <path d="M454.9993,61.1471545 L444.5763,61.2641545 C443.5263,61.2751545 442.6033,60.5711545 442.3393,59.5551545 L432.2873,21.0691545 C431.9383,22.6271545 431.8523,23.0851545 431.5013,24.5521545 L423.5293,59.7391545 C423.2953,60.7721545 422.3833,61.5081545 421.3243,61.5201545 L410.9163,61.6352828 C409.8723,61.6461545 408.9533,60.9491545 408.6833,59.9411545 L393.5933,3.68415446 C393.2063,2.24215446 394.2823,0.82215446 395.7753,0.80515446 L405.5423,0.69715446 C406.6103,0.68615446 407.5453,1.41615446 407.7923,2.45515446 L416.1933,37.7991545 C416.1953,37.9821545 416.3883,38.7121545 416.7653,39.8071545 C416.7673,39.9871545 417.0513,40.8091545 417.2423,41.6281545 L426.3503,2.21415446 C426.5873,1.18715446 427.4973,0.45515446 428.5523,0.44315446 L438.1353,0.33715446 C439.1853,0.32615446 440.1063,1.03015446 440.3723,2.04515446 L450.6183,41.2601545 C450.8823,40.3421545 450.9663,39.7021545 451.0543,39.4271545 C451.2293,38.7841545 451.3143,38.1431545 451.4883,37.4091545 L459.3713,1.86815446 C459.6013,0.83115446 460.5153,0.0881544597 461.5773,0.0771544597 L468.5343,0 C470.0233,-0.0168455403 471.1307,1.37215446 470.7827,2.82015446 L457.1963,59.3951545 C456.9523,60.4141545 456.0463,61.1351545 454.9993,61.1471545" id="Fill-19"></path>
    <path d="M518.3367,20.4239545 L515.6117,32.6549545 L535.6997,37.1309545 C536.9327,37.4049545 537.7087,38.6269545 537.4347,39.8589545 L535.9427,46.5549545 C535.6687,47.7879545 534.4457,48.5639545 533.2137,48.2899545 L513.1247,43.8149545 L510.2227,56.8489545 L536.3807,62.6749545 C537.6127,62.9499545 538.3897,64.1719545 538.1147,65.4039545 L536.4827,72.7259545 C536.2087,73.9579545 534.9867,74.7349545 533.7537,74.4599545 L495.6347,65.9689545 C494.4017,65.6949545 493.6257,64.4729545 493.8997,63.2409545 L506.1687,8.15595446 C506.4427,6.92395446 507.6647,6.14695446 508.8967,6.42195446 L547.0207,14.9119545 C548.2517,15.1869545 549.0287,16.4079545 548.7537,17.6409545 L547.2237,24.5149545 C546.9487,25.7479545 545.7277,26.5249545 544.4937,26.2499545 L518.3367,20.4239545 Z"></path>
    <path d="M586.2637,57.5123545 L594.1697,61.3263545 C598.4537,63.3933545 599.5217,63.7063545 601.5627,63.4713545 C604.0137,63.2333545 606.5237,61.3973545 607.6757,59.0083545 C608.7097,56.8673545 608.7137,54.3303545 607.7447,52.3413545 C606.6937,50.3093545 605.7847,49.6683545 600.5957,47.1653545 L593.0177,43.5083545 L586.2637,57.5123545 Z M569.1827,87.6533545 L560.3697,83.4013545 C559.2337,82.8523545 558.7557,81.4863545 559.3047,80.3483545 L583.8217,29.5283545 C584.3687,28.3903545 585.7367,27.9133545 586.8737,28.4623545 L608.9487,39.1123545 C616.0337,42.5283545 619.4267,45.3843545 621.4097,49.6933545 C623.5617,54.2833545 623.4017,60.2993545 621.0167,65.2423545 C619.1097,69.1943545 615.7207,72.4343545 611.7327,73.9633545 C609.7397,74.7273545 608.1067,74.9553545 604.6707,74.9213545 L603.3017,100.595354 C603.2147,102.226354 601.4957,103.242354 600.0257,102.533354 L590.2817,97.8323545 C589.4297,97.4213545 588.9187,96.5303545 588.9957,95.5883545 L590.9587,71.3533545 L581.7337,66.9013545 L572.2347,86.5873545 C571.6867,87.7243545 570.3197,88.2013545 569.1827,87.6533545 L569.1827,87.6533545 Z"></path>
</svg>