<?xml version="1.0" encoding="utf-8"?>
<!-- Generator: Adobe Illustrator 25.0.0, SVG Export Plug-In . SVG Version: 6.00 Build 0)  -->
<svg version="1.1" id="Layer_1" xmlns="http://www.w3.org/2000/svg" xmlns:xlink="http://www.w3.org/1999/xlink" x="0px" y="0px"
	 viewBox="0 0 218.8 232.443" style="enable-background:new 0 0 218.8 232.443;" xml:space="preserve">
<style type="text/css">
	.st0{fill:#B3DBF0;}
</style>
<path class="st0" d="M110.2,162.003c0,0-10,23-29.3,16.2c-16.4-5.8-16.8-27.7-2.5-40.9c20.4-18.8,31.8-31.3,31.8-31.3
	s11.4,12.5,31.8,31.3c14.3,13.2,13.9,35.1-2.5,40.9C120.2,185.003,110.2,162.003,110.2,162.003z M110.2,46.803
	c-7.4,0-13.4,9.8-13.4,21.9s6,21.9,13.4,21.9s13.4-9.8,13.4-21.9S117.6,46.803,110.2,46.803z M72,68.803
	c-7.3,1.2-11.7,11.8-9.8,23.8c1.9,11.9,9.4,20.7,16.7,19.5s11.7-11.8,9.8-23.8C86.8,76.403,79.3,67.603,72,68.803z M131.3,88.303
	c-1.9,11.9,2.4,22.6,9.8,23.8c7.4,1.2,14.8-7.5,16.7-19.5c1.9-11.9-2.4-22.6-9.8-23.8C140.8,67.603,133.3,76.403,131.3,88.303z
	 M29,190.103c-0.5,0-1-0.2-1.4-0.6c-0.4-0.4-0.6-0.9-0.6-1.4c0-0.1,0-0.3,0-0.4c0-0.1,0.1-0.2,0.1-0.4c0-0.1,0.1-0.2,0.2-0.3
	s0.1-0.2,0.2-0.3c0.8-0.8,2.1-0.8,2.8,0c0.1,0.1,0.2,0.2,0.2,0.3c0.1,0.1,0.1,0.2,0.2,0.3c0,0.1,0.1,0.2,0.1,0.4c0,0.1,0,0.3,0,0.4
	c0,0.5-0.2,1-0.6,1.4c-0.1,0.1-0.2,0.2-0.3,0.2s-0.2,0.1-0.3,0.2c-0.1,0.1-0.2,0.1-0.4,0.1C29.3,190.103,29.1,190.103,29,190.103z
	 M21.2,181.703L21.2,181.703L21.2,181.703c-0.7-0.9-0.5-2.1,0.4-2.8l0,0c0.9-0.6,2.1-0.5,2.8,0.4l0,0c0.7,0.9,0.5,2.1-0.4,2.8l0,0
	c-0.4,0.3-0.8,0.4-1.2,0.4l0,0C22.2,182.503,21.6,182.203,21.2,181.703z M15.7,173.403c-0.6-1-0.3-2.2,0.7-2.8l0,0
	c0.9-0.6,2.2-0.3,2.7,0.7l0,0c0.6,0.9,0.3,2.2-0.7,2.8l0,0c-0.3,0.2-0.7,0.3-1,0.3l0,0C16.7,174.303,16.1,174.003,15.7,173.403z
	 M10.9,164.603L10.9,164.603L10.9,164.603c-0.5-1-0.1-2.2,0.9-2.7l0,0c1-0.5,2.2-0.1,2.7,0.9l0,0c0.5,1,0.1,2.2-0.9,2.7l0,0
	c-0.3,0.1-0.6,0.2-0.9,0.2l0,0C12,165.703,11.3,165.303,10.9,164.603z M7,155.403L7,155.403L7,155.403c-0.4-1,0.1-2.2,1.2-2.6l0,0
	c1-0.4,2.2,0.1,2.6,1.2l0,0c0.4,1-0.1,2.2-1.2,2.6l0,0c-0.2,0.1-0.5,0.1-0.7,0.1l0,0C8,156.703,7.3,156.203,7,155.403z M3.9,145.903
	c-0.3-1.1,0.3-2.2,1.4-2.5l0,0c1.1-0.3,2.2,0.3,2.5,1.4l0,0c0.3,1.1-0.3,2.2-1.4,2.5l0,0c-0.2,0-0.4,0.1-0.5,0.1l0,0
	C5,147.303,4.2,146.703,3.9,145.903z M1.7,136.103L1.7,136.103L1.7,136.103c-0.2-1.1,0.5-2.1,1.6-2.3l0,0c1.1-0.2,2.1,0.5,2.3,1.6
	l0,0c0.2,1.1-0.5,2.1-1.6,2.3l0,0c-0.1,0-0.2,0-0.3,0l0,0C2.7,137.803,1.9,137.103,1.7,136.103z M0.4,126.203
	c-0.1-1.1,0.7-2.1,1.8-2.2l0,0c1.1-0.1,2.1,0.7,2.2,1.8l0,0c0.1,1.1-0.7,2.1-1.8,2.2l0,0c0,0-0.1,0-0.2,0l0,0
	C1.4,128.003,0.5,127.203,0.4,126.203z M2,118.203c-1.1,0-2-0.9-2-2l0,0c0-1.1,0.9-2,2-2l0,0c1.1,0,2,0.9,2,2l0,0
	C4,117.303,3.2,118.203,2,118.203L2,118.203L2,118.203z M2.4,108.403c-1.1-0.1-1.9-1.1-1.8-2.2l0,0c0.1-1.1,1.1-1.9,2.2-1.8l0,0
	c1.1,0.1,1.9,1.1,1.8,2.2l0,0c-0.1,1-1,1.8-2,1.8l0,0C2.5,108.403,2.4,108.403,2.4,108.403z M3.6,98.603c-1.1-0.2-1.8-1.2-1.6-2.3
	l0,0c0.2-1.1,1.2-1.8,2.3-1.6l0,0c1.1,0.2,1.8,1.3,1.6,2.4l0,0c-0.2,1-1,1.6-2,1.6l0,0C3.8,98.703,3.7,98.703,3.6,98.603z
	 M189.8,190.103c-0.1,0-0.3,0-0.4,0s-0.2-0.1-0.4-0.1c-0.1,0-0.2-0.1-0.3-0.2c-0.1-0.1-0.2-0.1-0.3-0.2c-0.1-0.1-0.2-0.2-0.2-0.3
	c-0.1-0.1-0.1-0.2-0.2-0.3c0-0.1-0.1-0.2-0.1-0.4c0-0.1,0-0.3,0-0.4c0-0.5,0.2-1,0.6-1.4c0.1-0.1,0.2-0.2,0.3-0.2
	c0.1-0.1,0.2-0.1,0.3-0.2c0.1-0.1,0.2-0.1,0.4-0.1c0.7-0.1,1.3,0.1,1.8,0.6c0.4,0.4,0.6,0.9,0.6,1.4c0,0.1,0,0.3,0,0.4
	c0,0.1-0.1,0.2-0.1,0.4c0,0.1-0.1,0.2-0.2,0.3s-0.1,0.2-0.2,0.3C190.9,189.903,190.4,190.103,189.8,190.103z M194.8,182.103
	c-0.9-0.7-1.1-1.9-0.4-2.8l0,0c0.6-0.9,1.9-1.1,2.8-0.4l0,0c0.9,0.7,1.1,1.9,0.4,2.8l0,0c-0.4,0.5-1,0.8-1.6,0.8l0,0
	C195.6,182.503,195.2,182.403,194.8,182.103z M200.4,174.003c-1-0.6-1.2-1.8-0.7-2.8l0,0l0,0l0,0c0.6-0.9,1.8-1.2,2.7-0.7l0,0
	c1,0.6,1.2,1.8,0.7,2.8l0,0c-0.4,0.6-1,1-1.7,1l0,0C201.1,174.303,200.7,174.203,200.4,174.003z M205.3,165.503
	c-1-0.5-1.4-1.7-0.9-2.7l0,0c0.5-1,1.7-1.4,2.7-0.9l0,0c1,0.5,1.4,1.7,0.9,2.7l0,0c-0.4,0.7-1.1,1.1-1.8,1.1l0,0
	C205.8,165.703,205.5,165.603,205.3,165.503z M209.3,156.603c-1-0.4-1.6-1.5-1.2-2.6l0,0c0.4-1,1.5-1.6,2.6-1.2l0,0
	c1,0.4,1.5,1.5,1.2,2.6l0,0c-0.3,0.8-1.1,1.3-1.9,1.3l0,0C209.8,156.703,209.5,156.603,209.3,156.603z M212.5,147.303
	c-1.1-0.3-1.7-1.4-1.4-2.5l0,0c0.3-1.1,1.4-1.7,2.5-1.4l0,0c1.1,0.3,1.7,1.4,1.4,2.5l0,0c-0.2,0.9-1,1.5-1.9,1.5l0,0
	C212.8,147.303,212.7,147.303,212.5,147.303z M214.8,137.703c-1.1-0.2-1.8-1.2-1.6-2.3l0,0c0.2-1.1,1.2-1.8,2.3-1.6l0,0
	c1.1,0.2,1.8,1.2,1.6,2.3l0,0c-0.2,1-1,1.6-2,1.6l0,0C215,137.703,214.9,137.703,214.8,137.703z M216.3,128.003
	c-1.1-0.1-1.9-1.1-1.8-2.2l0,0l0,0l0,0c0.1-1.1,1.1-1.9,2.2-1.8l0,0c1.1,0.1,1.9,1.1,1.8,2.2l0,0c-0.1,1-1,1.8-2,1.8l0,0
	C216.4,128.003,216.3,128.003,216.3,128.003z M214.8,116.203c0-1.1,0.9-2,2-2l0,0c1.1,0,2,0.9,2,2l0,0c0,1.1-0.9,2-2,2l0,0l0,0l0,0
	C215.7,118.203,214.8,117.303,214.8,116.203z M214.3,106.603c-0.1-1.1,0.7-2.1,1.8-2.2l0,0c1.1-0.1,2.1,0.7,2.2,1.8l0,0
	c0.1,1.1-0.7,2.1-1.8,2.2l0,0c-0.1,0-0.1,0-0.2,0l0,0C215.3,108.403,214.4,107.603,214.3,106.603z M212.9,97.003
	c-0.2-1.1,0.5-2.1,1.6-2.3l0,0c1.1-0.2,2.1,0.5,2.3,1.6l0,0c0.2,1.1-0.5,2.1-1.6,2.3l0,0c-0.1,0-0.2,0-0.4,0l0,0
	C214,98.703,213.1,98.003,212.9,97.003z M7.235,81.498c-0.786-0.353-2.018-0.893-2.812-1.112c-1.764-0.468-1.575,1.092-2.641,0.645
	c-0.735-0.309-0.688-1.291-0.428-1.91c0.212-0.504,1.869-3.908,2.544-5.516c0.163-0.387,1.604-4.36,1.718-4.631
	c0.317-0.756,2.238-0.883,3.556-0.329c0.658,0.276,1.206,0.87,0.896,1.606c-0.561,1.336-2.263-0.199-3.824,3.519
	c-0.496,1.182-0.805,1.645,2.003,2.823c0.349,0.146,0.687,0.266,1.158-0.857c0.626-1.491-1.554-1.29-0.984-2.646
	c0.463-1.104,2.606-0.295,3.361,0.022c0.91,0.382,3.213,1.463,2.66,2.779c-0.521,1.239-2.172-0.957-3.043,1.114
	c-0.357,0.853-0.153,0.801,1.833,1.658c2.833,1.281,2.066-1.342,3.538-0.724c0.445,0.188,1.37,0.371-0.605,5.076
	c-1.302,3.098-1.958,3.414-2.791,3.064c-1.084-0.455-0.142-1.289-0.997-2.127c-0.461-0.421-1.812-1.057-2.45-1.325L7.235,81.498z
	 M14.47,67.847c-0.911-1.302-2.057-2.987-3.482-3.838c-1.244-0.742-1.838-1.879-0.88-3.483c0.936-1.569,3.133-1.604,4.742-1.598
	c0.706,0.006,7.85,0.574,9.716,0.807c1.726,0.223,1.477-1.246,2.505-0.633c1.316,0.785-0.265,3.313-0.803,4.216
	c-1.538,2.579-2.481,4.119-3.6,3.452c-0.866-0.517,0.115-1.423-0.517-1.799c-0.812-0.484-1.152-0.076-2.885,2.827
	c-0.56,0.938-0.856,1.519,0.027,2.046c0.703,0.419,0.923-1.015,1.86-0.455c1.082,0.646-0.062,2.604-0.491,3.325
	c-1.539,2.579-2.166,2.523-2.742,2.179c-0.849-0.505-0.015-1.329-0.353-2.239c-0.25-0.687-0.89-1.582-1.306-2.197L14.47,67.847z
	 M18.027,64.833c0.107-0.18,0.467-0.699,0.196-0.861c-0.271-0.161-1.521-0.197-1.859-0.203c-0.386-0.01-1.235-0.102-1.473,0.295
	c-0.258,0.433,0.642,1.385,0.797,1.575s0.676,0.917,0.893,1.046c0.307,0.184,0.521-0.3,0.64-0.498L18.027,64.833z M29.652,44.513
	c0.007,0.253-0.02,0.479,0.189,0.655c0.208,0.176,0.422,0.054,0.638-0.038c0.812-0.44,2.626-0.86,3.973,0.279
	c1.604,1.356,2.668,4.1-0.06,7.322c-0.461,0.546-0.897,1.029-1.336,1.483c-0.424,0.468-0.847,0.935-1.267,1.432
	c-0.462,0.546-0.92,1.12-1.365,1.68c-0.43,0.572-0.874,1.131-1.35,1.692c-0.42,0.497-1.184,0.814-1.745,0.339
	c-0.994-0.841,0.898-1.028-1.683-3.377l-4.47-4.083c-2.34-2.145-2.4,0.171-3.507-0.765c-0.609-0.516-0.342-1.418,0.079-1.915
	c0.502-0.593,1.035-1.159,1.554-1.739c0.534-0.566,1.067-1.132,1.569-1.726c0.326-0.385,0.605-0.781,0.886-1.177
	c0.296-0.383,0.59-0.795,0.901-1.163c2.482-2.936,4.516-2.509,5.75-1.464C29.148,42.574,29.676,43.542,29.652,44.513z M25,48.583
	c0.625,0.529,0.902,0.818,1.323,0.321c0.813-0.962,0.33-1.756-0.552-2.502c-0.722-0.61-1.823-1.13-2.569-0.248
	c-0.502,0.594,0.033,0.937,0.499,1.33L25,48.583z M28.913,51.893c1.86,1.573,2.166,1.31,2.586,0.812
	c0.773-0.914,0.42-1.764-0.414-2.469c-0.979-0.828-2.089-1.271-3.038-0.149c-0.421,0.497-0.259,0.826,0.064,1.128L28.913,51.893z
	 M32.39,39.422c-2.124-2.467-2.456-0.407-3.306-1.394c-0.754-0.876,0.392-2.056,1.028-2.604c0.334-0.288,0.68-0.53,1.028-0.802
	c0.346-0.242,0.707-0.498,1.025-0.772c0.509-0.438,0.991-0.909,1.488-1.393c0.496-0.455,0.994-0.938,1.503-1.377
	c1.799-1.549,4.568-2.548,6.391-0.432c0.822,0.955,1.155,2.275,0.635,3.473c-0.075,0.203-0.146,0.347,0.02,0.538
	c0.205,0.238,0.467,0.124,0.727,0.039c1.47-0.546,2.594-0.238,4.296,1.289c1.466,1.315,1.732-0.467,2.568,0.505
	c0.521,0.604,0.337,1.871-1.461,3.42c-2.547,2.192-4.126,1.002-6.428-0.674c-0.806-0.582-1.692-1.064-2.568-0.312
	c-0.35,0.302-0.436,0.459,0.428,1.462c0.397,0.461,0.977,1.07,1.44,1.447c0.758,0.623,1.377-0.299,2.035,0.465
	c0.493,0.573,0.465,1.346-2.113,3.565c-0.764,0.657-3.023,2.604-4.023,1.441c-0.713-0.827,0.974-1.282-0.808-3.352L32.39,39.422z
	 M36.686,36.944c0.324,0.44,0.546,0.859,1.071,0.407c1.034-0.891,0.875-1.751,0.025-2.738c-0.671-0.779-1.547-1.411-2.471-0.616
	c-0.589,0.507-0.258,0.859,0.136,1.38L36.686,36.944z M47.586,29.651c-1.471-2.225-1.981-2.617-2.337-2.735
	c-0.738-0.241-1.456,0.158-1.896-0.508c-0.834-1.262,2.74-3.624,3.09-3.855c1.051-0.695,3.229-2.084,4.017-0.894
	c0.417,0.631-0.271,1.036-0.374,1.758c-0.078,0.605,0.947,2.193,1.758,3.42l1.146,1.734c2.062,3.118,2.226,2.908,2.715,2.888
	c0.611-0.027,1.09-0.218,1.449,0.325c0.347,0.525,0.711,1.418-3.126,3.954c-0.735,0.487-2.954,1.929-3.695,0.808
	c-0.37-0.561,0.167-1.042,0.228-1.561c0.048-0.384-0.205-1.147-1.827-3.601L47.586,29.651z M63.179,32.14
	c-1.944,0.137-2.78,0.104-3.628,0.52c-0.151,0.074-0.283,0.187-0.453,0.27c-0.301,0.148-0.572-0.069-0.701-0.333
	c-0.39-0.792,0.17-1.605,0.886-1.957c0.133-0.064,0.273-0.111,0.405-0.176c0.113-0.056,0.265-0.177,0.19-0.327
	c-0.204-0.415-3.209-0.482-5.07-4.27c-1.964-3.995-0.168-8.388,3.94-10.406c5.201-2.557,9.449,1.041,10.644,3.472
	c1.454,2.959,0.768,5.94-1.438,8.404c-0.076,0.084-0.171,0.271-0.115,0.384c0.148,0.302,1.066,0.553,3.253-0.522
	c0.754-0.37,1.171-0.996,1.321-1.07c0.283-0.139,0.731,0.249,0.852,0.494c0.287,0.584-0.113,2.863-3.204,4.382
	c-1.168,0.574-2.108,0.756-3.396,0.897L63.179,32.14z M59.261,18.694c-1.055,0.519-1.046,1.871-0.592,2.795
	c0.787,1.602,4.132,5.55,6.167,4.549c1.149-0.564,1.148-1.804,0.648-2.821C64.642,21.501,61.466,17.611,59.261,18.694z
	 M82.119,10.951c-0.632-2.156-2.123-0.822-2.466-1.991c-0.366-1.25,1.984-1.895,2.811-2.137c0.766-0.225,2.983-0.874,3.326,0.295
	c0.33,1.129-1.382,0.887-0.845,2.721l1.595,5.442c0.266,0.907,1.703,5.739-5.271,7.782c-7.942,2.326-8.851-4.061-8.921-4.303
	l-1.364-4.656c-0.291-1.294-1.662-0.892-1.934-1.819c-0.083-0.282-0.635-1.346,3.518-2.562c3.285-0.963,4.127-0.553,4.357,0.233
	c0.426,1.451-1.441,0.532-0.822,3.021l1.087,3.709c0.702,2.398,2.059,3.665,4.195,3.039c3.185-0.934,2.27-3.532,2.205-3.754
	L82.119,10.951z M96.503,4.736c2.793-0.345,3.137-0.811,3.471-0.853c1.188-0.146,1.941,1.834,2.055,2.751
	c0.085,0.688-0.086,1.534-0.898,1.635c-1.646,0.204-0.561-1.962-4.521-1.472c-2.313,0.286-2.032,0.675-1.736,3.071
	c0.149,1.209,0.218,1.243,1.489,1.086c1.584-0.196,0.109-2.363,1.589-2.546c1.209-0.149,1.584,2.195,1.685,3.008
	c0.105,0.855,0.27,3.374-0.981,3.529c-1.292,0.159-0.271-2.188-2.376-1.929c-0.875,0.108-0.756,0.898-0.674,1.565
	c0.377,3.043,0.566,2.871,2.756,2.601c4.272-0.529,2.7-3.318,4.409-3.529c0.667-0.083,1.094,0.626,1.165,1.21
	c0.176,1.417-0.635,4.1-1.469,4.202c-0.146,0.019-0.487-0.003-0.933-0.011c-0.464,0.015-1.055,0.024-1.764,0.112l-8.566,1.06
	c-1.376,0.17-1.475-0.452-1.508-0.724c-0.142-1.146,1.389-0.404,1.262-2.632c-0.22-3.824-0.152-3.452-0.827-7.199
	c-0.541-3.171-1.921-1.328-2.104-2.808c-0.157-1.271,1.62-1.28,2.475-1.386L96.503,4.736z M92.167,3.558
	c-0.108-0.875,1.314-1.348,1.245-1.91c-0.023-0.188-0.198-0.229-0.227-0.459c-0.064-0.521,1.34-0.801,1.674-0.842
	c0.646-0.08,2.568-0.106,2.688,0.853c0.064,0.521-1.324,2.64-4.159,2.991C92.846,4.257,92.249,4.225,92.167,3.558z M115.425,11.225
	c0.792-1.377,1.832-3.13,1.997-4.779c0.145-1.441,0.922-2.461,2.781-2.275c1.816,0.183,2.779,2.156,3.457,3.616
	c0.294,0.642,2.809,7.35,3.389,9.138c0.531,1.656,1.756,0.809,1.636,1.999c-0.152,1.525-3.112,1.166-4.157,1.061
	c-2.986-0.299-4.781-0.499-4.651-1.794c0.101-1.003,1.337-0.499,1.41-1.23c0.094-0.94-0.42-1.076-3.783-1.412
	c-1.087-0.109-1.737-0.132-1.841,0.892c-0.081,0.814,1.311,0.405,1.201,1.491c-0.125,1.254-2.383,1.049-3.219,0.965
	c-2.987-0.299-3.202-0.89-3.136-1.559c0.099-0.981,1.197-0.576,1.878-1.268c0.517-0.518,1.055-1.477,1.436-2.114L115.425,11.225z
	 M119.661,13.167c0.209,0.021,0.831,0.126,0.862-0.188s-0.465-1.46-0.604-1.77c-0.154-0.353-0.432-1.161-0.892-1.207
	c-0.501-0.051-0.981,1.167-1.089,1.389c-0.105,0.222-0.543,1.001-0.568,1.251c-0.035,0.355,0.494,0.345,0.723,0.368L119.661,13.167z
	 M118.248,0.937c0.096-0.961,2.018-0.979,2.665-0.915c0.335,0.033,1.744,0.28,1.692,0.803c-0.023,0.229-0.197,0.275-0.215,0.464
	c-0.057,0.563,1.376,1.002,1.288,1.88c-0.067,0.668-0.662,0.714-1.205,0.66C119.633,3.544,118.195,1.459,118.248,0.937z
	 M136.478,22.342c-0.638-0.212-1.667-0.509-1.363-1.425c0.409-1.236,1.62,0.315,2.446-1.977c0.522-1.441,0.945-2.717,1.336-3.893
	c0.396-1.195,0.666-2.345,0.996-3.474c0.516-1.688-1.529-1.392-1.152-2.527c0.482-1.455,3.637-0.497,4.613-0.174
	c3.986,1.321,3.961,2.065,3.736,2.743c-0.383,1.155-1.667-0.243-2.288,1.63l-2.101,6.337c-0.477,1.435-0.469,2.212,0.947,2.681
	c3.387,1.123,3.149-2.03,4.425-1.607c0.897,0.298,0.919,1.366,0.667,2.124c-0.515,1.555-2.291,3.177-3.208,2.873
	c-0.358-0.119-0.611-0.291-0.95-0.47c-0.353-0.205-0.771-0.41-1.448-0.635L136.478,22.342z M154.371,20.87
	c1.242-0.989,2.855-2.236,3.615-3.711c0.665-1.288,1.763-1.95,3.424-1.093c1.623,0.837,1.793,3.027,1.885,4.635
	c0.039,0.705-0.09,7.869-0.207,9.746c-0.116,1.736,1.334,1.397,0.785,2.461c-0.703,1.362-3.324-0.061-4.257-0.542
	c-2.669-1.377-4.264-2.224-3.667-3.381c0.463-0.896,1.428,0.027,1.764-0.625c0.434-0.84,0.006-1.155-2.998-2.706
	c-0.971-0.5-1.568-0.762-2.041,0.153c-0.375,0.728,1.07,0.858,0.568,1.829c-0.577,1.119-2.602,0.099-3.349-0.287
	c-2.669-1.377-2.651-2.006-2.343-2.603c0.452-0.877,1.325-0.096,2.213-0.488c0.67-0.293,1.525-0.986,2.113-1.438L154.371,20.87z
	 M157.597,24.235c0.187,0.097,0.728,0.423,0.872,0.143s0.104-1.529,0.089-1.868c-0.014-0.385,0.025-1.239-0.386-1.451
	c-0.447-0.23-1.342,0.726-1.523,0.893c-0.18,0.166-0.873,0.73-0.988,0.954c-0.164,0.317,0.332,0.502,0.537,0.608L157.597,24.235z
	 M176.432,36.66c0.086-0.288,0.328-0.913,0.045-1.163c-0.488-0.431-2.164,1.789-2.622,2.309c-1.485,1.687,0.218,1.787-0.532,2.639
	c-0.792,0.898-2.506-0.556-3.121-1.098c-0.551-0.485-1.944-1.797-1.223-2.616c0.792-0.898,1.085,0.676,2.35-0.506
	c1.293-1.213,2.727-2.554,4.739-4.84c0.833-0.945,1.2-1.489,1.347-2.005c0.134-0.47-0.668-1.372-0.098-2.018
	c0.791-0.898,2.451,0.172,3.713,1.282c1.844,1.625,1.535,1.912,1.299,3.133c-0.268,1.416-1.567,4.862-1.013,5.631
	c0.392,0.541,2.718-0.798,4.202-1.338c2.109-0.773,2.541-1.232,4.622,0.601c0.693,0.61,2.228,2.047,1.353,3.04
	c-0.555,0.63-1.375,0.132-2.005,0.528c-0.515,0.33-2.264,2.093-2.889,2.803c-0.208,0.236-1.642,2.054-2.87,3.575
	c-0.966,1.191,0.202,1.772-0.422,2.482c-0.932,1.056-3.049-0.894-3.742-1.505c-0.646-0.569-2.861-2.408-1.973-3.417
	c0.486-0.552,1.278-0.021,1.833-0.429c0.3-0.213,3.003-2.646,2.451-3.132c-0.489-0.431-2.215,0.512-3.302,0.982
	c-0.985,0.42-3.136,1.717-3.584,1.21c-0.225-0.254-0.379-0.334,0.551-3.295L176.432,36.66z M190.941,48.398
	c1.541-0.386,3.525-0.854,4.828-1.881c1.139-0.896,2.412-1.045,3.568,0.423c1.131,1.436,0.379,3.499-0.203,5.001
	c-0.258,0.657-3.342,7.126-4.227,8.786c-0.824,1.532,0.637,1.825-0.304,2.566c-1.204,0.948-3.001-1.433-3.65-2.258
	c-1.859-2.358-2.961-3.79-1.938-4.596c0.792-0.624,1.288,0.616,1.865,0.161c0.742-0.585,0.483-1.05-1.609-3.705
	c-0.676-0.858-1.112-1.344-1.92-0.706c-0.645,0.507,0.617,1.225-0.24,1.9c-0.99,0.78-2.41-0.988-2.931-1.648
	c-1.858-2.358-1.583-2.924-1.055-3.34c0.774-0.611,1.246,0.462,2.217,0.472c0.731,0.013,1.796-0.266,2.519-0.434L190.941,48.398z
	 M192.483,52.797c0.13,0.165,0.487,0.687,0.734,0.491s0.728-1.35,0.854-1.663c0.147-0.356,0.537-1.118,0.25-1.481
	c-0.312-0.396-1.521,0.104-1.756,0.182c-0.232,0.076-1.098,0.303-1.295,0.459c-0.281,0.221,0.094,0.595,0.236,0.776L192.483,52.797z
	 M201.396,61.325c2.294-1.36,2.711-1.852,2.846-2.2c0.277-0.727-0.086-1.463,0.601-1.87c1.301-0.771,3.485,2.914,3.7,3.275
	c0.643,1.084,1.924,3.328,0.695,4.057c-0.65,0.385-1.021-0.323-1.737-0.46c-0.601-0.107-2.237,0.839-3.502,1.588l-1.788,1.061
	c-3.217,1.907-3.016,2.081-3.018,2.571c-0.004,0.612,0.163,1.099-0.396,1.431c-0.543,0.322-1.452,0.642-3.798-3.315
	c-0.45-0.759-1.782-3.046-0.626-3.731c0.578-0.343,1.033,0.218,1.548,0.304c0.382,0.066,1.157-0.148,3.687-1.648L201.396,61.325z
	 M211.26,77.987c-0.095,0.313-0.392,1.171-0.244,1.519c0.206,0.482,1.006,0.165,1.335,0.025c0.483-0.206,1.306-0.579,1.684-0.923
	c0.696-0.616-0.029-1.517,1.015-1.96c1.236-0.526,2.017,1.469,2.361,2.279c0.362,0.851,1.355,2.915,0.022,3.482
	c-1.101,0.469-1.132-0.728-2.159-0.678c-0.803,0.045-2,0.555-2.734,0.867l-5.004,2.13c-0.869,0.37-3.466,1.613-4.018,0.318
	c-0.164-0.386-0.072-0.813,0.056-1.21l2.81-8.247c0.137-0.377,0.387-1.077,0.213-1.482c-0.254-0.599-1.519-0.084-1.924,0.089
	c-0.541,0.23-1.248,0.554-1.701,0.884c-1.112,0.816-0.213,1.643-1.159,2.046c-1.294,0.551-2.257-1.39-2.644-2.298
	c-0.379-0.889-1.109-2.928,0.146-3.462c1.024-0.437,1.095,0.857,2.414,0.523c0.888-0.218,2.122-0.697,2.991-1.067
	c1.391-0.593,2.801-1.192,4.102-1.997c1.8-1.132,0.454-2.202,1.613-2.695c1.371-0.584,2.404,2.057,2.774,2.926
	c0.51,1.198,0.523,1.443,0.12,2.642L211.26,77.987z M38.909,197.026c1.412-0.727,3.236-1.637,4.269-2.936
	c0.903-1.133,2.109-1.569,3.571-0.405c1.429,1.137,1.169,3.319,0.947,4.914c-0.1,0.699-1.621,7.701-2.102,9.52
	c-0.452,1.68,1.037,1.631,0.292,2.567c-0.955,1.2-3.248-0.707-4.07-1.36c-2.349-1.871-3.749-3.012-2.939-4.03
	c0.628-0.789,1.395,0.305,1.852-0.271c0.589-0.739,0.23-1.132-2.415-3.237c-0.854-0.68-1.39-1.053-2.031-0.248
	c-0.51,0.641,0.881,1.05,0.201,1.905c-0.785,0.986-2.572-0.41-3.229-0.933c-2.349-1.871-2.21-2.485-1.792-3.01
	c0.615-0.772,1.319,0.164,2.266-0.048c0.715-0.156,1.688-0.67,2.353-1L38.909,197.026z M41.417,200.956
	c0.164,0.131,0.631,0.556,0.827,0.309c0.196-0.246,0.4-1.48,0.451-1.814c0.062-0.381,0.266-1.212-0.096-1.499
	c-0.394-0.314-1.458,0.449-1.668,0.578s-0.999,0.547-1.156,0.744c-0.222,0.28,0.228,0.557,0.408,0.701L41.417,200.956z
	 M46.858,189.906c0.602-0.756,2.227,0.271,2.737,0.676c0.263,0.21,1.315,1.18,0.988,1.592c-0.144,0.18-0.315,0.125-0.432,0.273
	c-0.353,0.443,0.614,1.589,0.064,2.279c-0.419,0.526-0.944,0.242-1.371-0.098C46.609,192.848,46.531,190.316,46.858,189.906z
	 M60.389,213.47c0-0.301,0.055-0.97-0.288-1.129c-0.591-0.274-1.565,2.332-1.856,2.961c-0.944,2.04,0.718,1.652,0.241,2.681
	c-0.503,1.086-2.561,0.181-3.304-0.163c-0.667-0.309-2.376-1.169-1.917-2.16c0.503-1.086,1.232,0.339,2.108-1.154
	c0.893-1.531,1.885-3.225,3.164-5.989c0.529-1.144,0.727-1.77,0.719-2.306c-0.005-0.488-1.03-1.125-0.669-1.907
	c0.503-1.086,2.399-0.533,3.925,0.172c2.231,1.032,2.016,1.396,2.138,2.633c0.147,1.433-0.118,5.107,0.633,5.686
	c0.529,0.406,2.378-1.538,3.647-2.479c1.801-1.343,2.085-1.906,4.601-0.741c0.839,0.388,2.719,1.327,2.164,2.528
	c-0.353,0.763-1.281,0.519-1.772,1.079c-0.399,0.463-1.574,2.651-1.971,3.508c-0.132,0.286-0.988,2.437-1.732,4.245
	c-0.587,1.418,0.698,1.643,0.301,2.501c-0.591,1.277-3.176,0.011-4.015-0.377c-0.782-0.361-3.429-1.493-2.865-2.713
	c0.309-0.667,1.22-0.385,1.635-0.933c0.226-0.289,2.125-3.393,1.457-3.701c-0.591-0.274-1.978,1.122-2.885,1.883
	c-0.825,0.683-2.517,2.539-3.092,2.181c-0.288-0.18-0.457-0.212-0.411-3.315L60.389,213.47z M74.286,217.99
	c1.143-4.303,5.382-6.436,9.807-5.261c5.602,1.488,6.444,6.992,5.749,9.61c-1.159,4.364-5.782,6.222-9.923,5.123
	C75.636,226.325,73.137,222.314,74.286,217.99z M82.356,215.505c-1.137-0.301-2.018,0.725-2.282,1.72
	c-0.459,1.725-0.529,6.899,1.663,7.482c1.238,0.329,2.052-0.606,2.343-1.703C84.571,221.157,84.731,216.137,82.356,215.505z
	 M102.391,221.207c0.231,0.233,0.843,0.902,1.22,0.937c0.523,0.049,0.623-0.806,0.657-1.161c0.049-0.523,0.112-1.424-0.01-1.92
	c-0.211-0.905-1.348-0.696-1.243-1.824c0.125-1.338,2.251-1.077,3.129-0.995c0.92,0.086,3.208,0.194,3.074,1.637
	c-0.112,1.192-1.178,0.649-1.623,1.578c-0.342,0.728-0.463,2.024-0.538,2.818l-0.506,5.415c-0.088,0.94-0.23,3.816-1.63,3.685
	c-0.418-0.039-0.75-0.323-1.039-0.624l-5.919-6.394c-0.267-0.299-0.764-0.852-1.203-0.892c-0.648-0.061-0.796,1.296-0.837,1.735
	c-0.055,0.585-0.106,1.361-0.032,1.916c0.189,1.368,1.343,0.969,1.248,1.993c-0.131,1.401-2.296,1.325-3.278,1.233
	c-0.962-0.089-3.103-0.416-2.977-1.775c0.104-1.108,1.275-0.556,1.609-1.875c0.23-0.885,0.395-2.198,0.483-3.139
	c0.14-1.505,0.283-3.031,0.194-4.558c-0.139-2.122-1.721-1.447-1.603-2.701c0.139-1.484,2.953-1.137,3.894-1.049
	c1.296,0.121,1.518,0.226,2.381,1.15L102.391,221.207z M119.242,216.007c0.901-0.057,1.315-0.167,1.626-0.25
	c0.288-0.103,0.452-0.176,0.85-0.201c0.817-0.052,2.618,1.454,2.76,3.718c0.066,1.048-0.434,1.774-1.504,1.842
	c-1.823,0.116-1.959-2.359-3.027-2.291c-0.817,0.052-0.662,1.179-0.652,1.346l0.408,6.434c0.157,2.495,2.01,1.178,2.103,2.645
	c0.041,0.65-0.299,1.598-4.218,1.846c-1.07,0.068-4.986,0.358-5.088-1.256c-0.071-1.111,1.257-0.752,1.625-1.576
	c0.181-0.454,0.186-1.717,0.173-2.242l-0.125-4.643c-0.056-2.206-0.494-2.157-0.788-2.138c-0.944,0.059-1.248,2.562-2.946,2.67
	c-0.817,0.052-1.347-0.672-1.395-1.427c-0.113-1.781,1.249-4.204,2.444-4.28c0.147-0.009,0.381,0.04,0.785,0.098
	c0.402,0.038,0.973,0.086,1.811,0.032L119.242,216.007z M126.229,219.732c-0.699-3.179-1.969-1.523-2.248-2.795
	c-0.248-1.128,1.32-1.624,2.141-1.804c0.43-0.094,0.85-0.143,1.285-0.218c0.419-0.049,0.859-0.103,1.269-0.193
	c0.656-0.144,1.304-0.33,1.972-0.52c0.651-0.165,1.32-0.355,1.975-0.499c2.317-0.509,5.23-0.075,5.829,2.654
	c0.27,1.23-0.062,2.551-1.09,3.357c-0.162,0.143-0.292,0.236-0.238,0.482c0.068,0.307,0.352,0.331,0.621,0.38
	c1.553,0.217,2.396,1.021,3.171,3.173c0.665,1.853,1.746,0.412,2.021,1.663c0.171,0.779-0.592,1.807-2.909,2.317
	c-3.282,0.721-4.107-1.076-5.338-3.643c-0.433-0.894-0.985-1.74-2.113-1.493c-0.451,0.099-0.601,0.197-0.317,1.489
	c0.131,0.595,0.351,1.406,0.581,1.958c0.372,0.907,1.354,0.39,1.571,1.374c0.162,0.738-0.229,1.406-3.551,2.136
	c-0.985,0.216-3.898,0.857-4.226-0.641c-0.235-1.067,1.465-0.666,0.879-3.332L126.229,219.732z M131.186,219.588
	c0.076,0.542,0.073,1.016,0.749,0.867c1.333-0.293,1.602-1.126,1.323-2.397c-0.221-1.006-0.693-1.977-1.883-1.715
	c-0.759,0.167-0.635,0.634-0.535,1.279L131.186,219.588z M147.723,209.116c2.624-1.018,2.845-1.553,3.158-1.675
	c1.116-0.433,2.33,1.305,2.664,2.166c0.25,0.647,0.292,1.509-0.472,1.805c-1.547,0.6-1.023-1.766-4.744-0.324
	c-2.174,0.843-1.807,1.152-0.933,3.404c0.44,1.135,0.514,1.152,1.708,0.689c1.488-0.577-0.47-2.319,0.92-2.857
	c1.136-0.441,2.073,1.742,2.369,2.506c0.311,0.803,1.085,3.206-0.09,3.662c-1.214,0.471-0.798-2.057-2.776-1.29
	c-0.822,0.319-0.514,1.056-0.271,1.682c1.109,2.86,1.252,2.646,3.307,1.85c4.015-1.557,1.808-3.877,3.415-4.5
	c0.627-0.243,1.213,0.341,1.426,0.888c0.517,1.332,0.385,4.131-0.399,4.435c-0.137,0.053-0.473,0.116-0.907,0.216
	c-0.446,0.128-1.017,0.282-1.683,0.54l-8.049,3.12c-1.293,0.501-1.54-0.08-1.638-0.334c-0.418-1.076,1.248-0.731,0.58-2.861
	c-1.147-3.655-0.991-3.31-2.561-6.779c-1.299-2.943-2.187-0.819-2.726-2.21c-0.463-1.194,1.258-1.636,2.06-1.947L147.723,209.116z
	 M143.23,209.032c-0.319-0.823,0.945-1.628,0.74-2.157c-0.068-0.176-0.248-0.174-0.331-0.389c-0.19-0.491,1.105-1.105,1.417-1.225
	c0.608-0.236,2.466-0.73,2.815,0.17c0.19,0.49-0.639,2.883-3.303,3.916C144.059,209.544,143.473,209.66,143.23,209.032z
	 M160.176,211.334c-0.166-1.58-0.352-3.611-1.185-5.045c-0.729-1.253-0.698-2.535,0.919-3.474c1.579-0.919,3.517,0.116,4.922,0.902
	c0.615,0.347,6.589,4.307,8.108,5.416c1.402,1.031,1.897-0.375,2.499,0.66c0.771,1.326-1.839,2.771-2.747,3.299
	c-2.596,1.51-4.168,2.4-4.823,1.275c-0.507-0.872,0.792-1.189,0.421-1.824c-0.475-0.817-0.971-0.626-3.895,1.075
	c-0.944,0.55-1.485,0.913-0.968,1.802c0.412,0.708,1.3-0.439,1.848,0.505c0.634,1.089-1.316,2.248-2.042,2.67
	c-2.596,1.51-3.117,1.157-3.455,0.577c-0.497-0.854,0.632-1.17,0.778-2.13c0.115-0.723-0.012-1.816-0.077-2.555L160.176,211.334z
	 M164.749,210.423c0.181-0.105,0.748-0.386,0.589-0.658c-0.159-0.273-1.234-0.91-1.527-1.08c-0.333-0.195-1.033-0.687-1.432-0.455
	c-0.435,0.253-0.11,1.522-0.067,1.764c0.044,0.242,0.147,1.13,0.273,1.348c0.179,0.309,0.602-0.009,0.802-0.126L164.749,210.423z
	 M178.925,208.472c-0.523,0.422-1.331,1.126-1.936,0.374c-0.817-1.014,1.143-1.191-0.335-3.127c-0.929-1.22-1.772-2.266-2.549-3.232
	c-0.79-0.981-1.609-1.831-2.38-2.72c-1.14-1.347-1.998,0.531-2.75-0.401c-0.962-1.194,1.553-3.327,2.354-3.973
	c3.27-2.634,3.882-2.21,4.33-1.653c0.764,0.948-1.107,1.269,0.131,2.806l4.188,5.2c0.948,1.177,1.605,1.592,2.767,0.656
	c2.779-2.239,0-3.748,1.047-4.591c0.736-0.592,1.646-0.032,2.147,0.59c1.028,1.275,1.428,3.648,0.677,4.254
	c-0.295,0.237-0.576,0.356-0.911,0.543c-0.363,0.185-0.762,0.426-1.319,0.874L178.925,208.472z"/>
</svg>
