<?xml version="1.0" encoding="utf-8"?>
<!-- Generator: Adobe Illustrator 24.3.0, SVG Export Plug-In . SVG Version: 6.00 Build 0)  -->
<svg version="1.1" id="Layer_1" xmlns="http://www.w3.org/2000/svg" xmlns:xlink="http://www.w3.org/1999/xlink" x="0px" y="0px"
	 viewBox="0 0 218.8 232.7" style="enable-background:new 0 0 218.8 232.7;" xml:space="preserve">
<style type="text/css">
	.st0{fill:#B3DBF0;}
</style>
<path class="st0" d="M110.2,160.6c0,0-10,23-29.3,16.2c-16.4-5.8-16.8-27.7-2.5-40.9c20.4-18.8,31.8-31.3,31.8-31.3
	s11.4,12.5,31.8,31.3c14.3,13.2,13.9,35.1-2.5,40.9C120.2,183.6,110.2,160.6,110.2,160.6z M110.2,45.4c-7.4,0-13.4,9.8-13.4,21.9
	s6,21.9,13.4,21.9s13.4-9.8,13.4-21.9S117.6,45.4,110.2,45.4z M72,67.4c-7.3,1.2-11.7,11.8-9.8,23.8c1.9,11.9,9.4,20.7,16.7,19.5
	s11.7-11.8,9.8-23.8C86.8,75,79.3,66.2,72,67.4z M131.3,86.9c-1.9,11.9,2.4,22.6,9.8,23.8c7.4,1.2,14.8-7.5,16.7-19.5
	c1.9-11.9-2.4-22.6-9.8-23.8C140.8,66.2,133.3,75,131.3,86.9z M41.9,35.1c0.4,0.4,0.7,0.6,1.3,0.5c0.4-0.1,0.7-0.2,1.1,0.1
	c0.3,0.4,1,1.1-1.9,3.8c-0.6,0.6-2.5,2.3-3.4,1.4c-1.1-1.1,1.1-0.8-1.6-3.8c-0.7-0.8-0.9-0.6-1.6,0.1c-2,1.9-1.8,1.8-0.6,3.1
	c1.9,2,2,0.4,2.9,1.3c1,1-1.1,3.1-1.8,3.7c-0.7,0.6-2.8,2.5-3.7,1.5c-0.3-0.3-0.2-0.7-0.1-1.1c0.3-0.7,0.5-0.9-2.3-3.9
	c-3.6-3.9-3.4-3.5-4.2-3.3c-0.3,0.1-0.7,0.2-1-0.1c-1.1-1.1,1.3-3.5,2.1-4.3c0.6-0.6,2.4-2.1,3.2-1.2c0.4,0.5,0.3,0.8,0.2,1.4
	c-0.2,0.5-0.1,0.8,1.1,2.1c0.8,0.8,1,0.4,1.8-0.3l0.7-0.7c1-0.9,0.8-1,0.4-1.5c-1.5-1.6-1.8-1.5-2.1-1.4c-0.4,0.1-0.8,0.2-1.2-0.2
	c-0.3-0.3-1.1-1,1.8-3.8c0.7-0.6,2.6-2.4,3.6-1.4c0.3,0.3,0.3,0.7,0.2,1.1c-0.3,0.6-0.5,0.7,1.7,3L41.9,35.1z M44.4,28.4
	c-0.3-1.5-0.6-3.4-1.4-4.7c-0.8-1.1-0.8-2.4,0.7-3.4c1.4-1,3.4-0.1,4.7,0.6c0.6,0.3,6.5,3.7,8,4.6c1.4,0.9,1.8-0.5,2.4,0.5
	c0.8,1.2-1.6,2.7-2.4,3.3c-2.4,1.6-3.8,2.5-4.5,1.5c-0.5-0.8,0.7-1.2,0.3-1.8c-0.5-0.7-1-0.5-3.6,1.3c-0.9,0.6-1.4,1-0.8,1.8
	c0.4,0.6,1.2-0.5,1.8,0.4c0.7,1-1.1,2.2-1.8,2.7c-2.4,1.6-2.9,1.3-3.2,0.8c-0.5-0.8,0.5-1.2,0.6-2.1c0.1-0.7-0.1-1.7-0.2-2.4
	L44.4,28.4z M48.7,27.2c0.2-0.1,0.7-0.4,0.5-0.7c-0.2-0.2-1.2-0.8-1.5-0.9c-0.3-0.2-1-0.6-1.4-0.3s0,1.5,0,1.7
	c0.1,0.2,0.2,1.1,0.3,1.3c0.2,0.3,0.6,0,0.8-0.2L48.7,27.2z M65.2,14.2c0.3,0.1,1.1,0.3,1.5,0.2c0.5-0.2,0.1-1,0-1.3
	c-0.2-0.5-0.6-1.2-0.9-1.6c-0.6-0.6-1.4,0.1-1.9-0.9c-0.5-1.2,1.3-2,2.1-2.3c0.8-0.4,2.7-1.4,3.3-0.1c0.5,1-0.7,1.1-0.6,2.1
	c0.1,0.8,0.6,1.9,0.9,2.6l2.2,4.7c0.4,0.8,1.6,3.3,0.4,3.8c-0.4,0.2-0.8,0.1-1.2,0l-7.9-2.5c-0.4-0.1-1-0.3-1.4-0.2
	c-0.6,0.3,0,1.4,0.1,1.8c0.2,0.5,0.6,1.2,0.9,1.6c0.8,1,1.6,0.2,2,1.1c0.6,1.2-1.3,2.2-2.1,2.6c-0.8,0.4-2.8,1.1-3.3-0.1
	c-0.4-1,0.8-1.1,0.4-2.3c-0.2-0.8-0.7-2-1.1-2.8c-0.6-1.3-1.2-2.6-2-3.9c-1.1-1.7-2.1-0.4-2.6-1.5c-0.6-1.3,1.9-2.3,2.7-2.7
	c1.1-0.5,1.4-0.5,2.5-0.2L65.2,14.2z M73.6,9.2c-0.5-2-1.7-0.6-2-1.9c-0.2-0.9,0.8-1.3,1.5-1.5l6.3-1.7c5.4-1.5,8,1.4,9,4.8
	c1,3.6-0.2,7.5-5.1,8.9c-0.8,0.2-1.5,0.4-2.1,0.5s-1.1,0.3-1.7,0.4s-1.1,0.3-1.6,0.5s-1.1,0.4-1.6,0.5c-0.7,0.2-1.6,0.1-1.8-0.7
	c-0.4-1.4,1.6-0.3,0.9-3.1L73.6,9.2z M80.2,15c0.3,1,0.5,1.3,1.6,1.1c2.4-0.7,2.2-3.3,1.6-5.2c-1.2-4.5-3.1-4.8-4.6-4.4
	C78,6.7,78,7.1,78.2,7.8L80.2,15z M96.8,0.7c1.9-0.2,3.3,0.6,3.8,0.5c0.4-0.1,0.5-0.2,0.9-0.2c0.8-0.1,2.1,1,2.3,3.2
	c0.1,1.1-0.4,2.2-1.6,2.3c-2,0.2-1.9-3.3-5.5-2.9c-1.5,0.2-2,1.7-1.9,2.8c0.3,2.9,2.2,5.3,5,4.9c2.5-0.3,2.7-1.7,3.4-1.8
	c0.6-0.1,0.9,0.6,1,1.1c0.1,0.9-0.6,2.8-1.6,2.9c-0.7,0.1-1.9,1.4-4.3,1.7c-4.2,0.5-8-2.4-8.4-6.4C89.4,4.7,92.9,1.1,96.8,0.7z
	 M106.9,4.3c0.1-3.1-1.5-1.9-1.4-3.1c0-1.1,1.6-1.2,2.4-1.2c0.4,0,0.8,0.1,1.2,0.1c0.4,0.1,0.8,0.1,1.2,0.1c0.6,0,1.3,0,1.9,0
	c0.6,0,1.3,0,1.9,0c2.3,0.1,4.8,1.1,4.8,3.8c0,1.2-0.6,2.3-1.8,2.8c-0.2,0.1-0.3,0.2-0.3,0.4c0,0.3,0.2,0.4,0.5,0.5
	c1.4,0.6,2,1.5,2.2,3.7c0.2,1.9,1.5,0.8,1.5,2c0,0.8-1,1.5-3.2,1.5c-3.2-0.1-3.5-1.9-4.1-4.6c-0.2-0.9-0.5-1.8-1.6-1.9
	c-0.4,0-0.6,0-0.6,1.3c0,0.6,0,1.4,0.1,1.9c0.1,0.9,1.2,0.7,1.1,1.6c0,0.7-0.5,1.2-3.8,1.2c-1,0-3.8-0.1-3.8-1.6
	c0-1,1.5-0.3,1.6-2.9L106.9,4.3z M111.5,5.3c-0.1,0.5-0.2,1,0.5,1c1.3,0,1.7-0.7,1.8-1.9c0-1-0.2-2-1.3-2c-0.7,0-0.7,0.4-0.8,1.1
	L111.5,5.3z M126,8.1c0.9-1.2,2-2.8,2.3-4.4c0.3-1.4,1.1-2.3,2.8-1.9c1.7,0.3,2.5,2.3,3,3.7c0.2,0.6,2.1,7.2,2.5,8.9
	c0.4,1.6,1.6,0.9,1.4,2c-0.3,1.4-3,0.9-4,0.7c-2.8-0.5-4.5-0.9-4.3-2.1c0.2-0.9,1.3-0.4,1.4-1.1c0.2-0.9-0.3-1.1-3.5-1.6
	c-1-0.2-1.6-0.3-1.8,0.7c-0.1,0.8,1.2,0.5,1,1.5c-0.2,1.2-2.3,0.8-3.1,0.7c-2.8-0.5-3-1.1-2.8-1.7c0.2-0.9,1.2-0.4,1.9-1
	c0.5-0.4,1.1-1.3,1.5-1.9L126,8.1z M129.8,10.3c0.2,0,0.8,0.2,0.8-0.1c0.1-0.3-0.3-1.4-0.4-1.7c-0.1-0.3-0.3-1.1-0.7-1.2
	c-0.5-0.1-1,1-1.1,1.2s-0.6,0.9-0.6,1.1c-0.1,0.3,0.4,0.4,0.7,0.4L129.8,10.3z M141.8,10.6c0.3-0.8,0.7-2,0.9-2.7
	c0.3-1.7-1.1-1.4-0.8-2.5c0.2-0.7,1.2-0.7,1.8-0.5c0.5,0.2,3.8,1.5,5.4,2.1c0.4,0.1,4.2,1.3,4.5,1.3c0.7,0.3,1,2.1,0.5,3.4
	c-0.2,0.6-0.8,1.2-1.5,1c-1.3-0.5,0-2.2-3.6-3.4c-1.2-0.4-1.6-0.7-2.6,2.1c-0.1,0.3-0.2,0.7,0.9,1c1.5,0.5,1.1-1.6,2.5-1.1
	c1.1,0.4,0.4,2.5,0.2,3.2c-0.3,0.9-1.2,3.1-2.5,2.7c-1.2-0.4,0.8-2.1-1.2-2.8c-0.8-0.3-0.8-0.1-1.5,1.8c-1,2.8,1.4,1.9,0.9,3.3
	c-0.2,0.4-0.3,1.3-4.9-0.3c-3-1-3.4-1.7-3.1-2.5c0.4-1.1,1.2-0.2,2-1.1c0.4-0.5,0.9-1.8,1.1-2.4L141.8,10.6z M165.2,14
	c0.8,0.4,1.2,0.5,1.5,0.6c0.3,0.1,0.5,0.1,0.8,0.2c0.7,0.4,1.4,2.5,0.5,4.4c-0.5,0.9-1.2,1.2-2.1,0.8c-1.6-0.8-0.5-2.9-1.4-3.3
	c-0.7-0.4-1.1,0.6-1.2,0.8l-2.8,5.5c-1.1,2.1,1.1,1.9,0.5,3.2c-0.3,0.6-1,1.2-4.4-0.5c-0.9-0.5-4.3-2.1-3.6-3.5
	c0.5-0.9,1.4,0,2.1-0.5c0.4-0.3,1-1.3,1.2-1.8l2.1-3.9c1-1.8,0.6-2,0.4-2.1c-0.8-0.4-2.3,1.5-3.7,0.8c-0.7-0.4-0.8-1.2-0.5-1.8
	c0.8-1.5,3.1-2.8,4.1-2.3c0.1,0.1,0.3,0.2,0.6,0.5c0.3,0.2,0.8,0.5,1.5,0.9L165.2,14z M177.7,21.7c2.2,1.5,2.7,1.4,3,1.6
	c0.9,0.6,0.2,2.5-0.3,3.3c-0.4,0.5-1,1-1.7,0.6c-1.3-0.9,0.8-1.8-2.3-3.9c-1.8-1.3-1.9-0.8-3.2,1.1c-0.7,1-0.6,1,0.4,1.7
	c1.3,0.9,1.6-1.6,2.7-0.8c1,0.7-0.3,2.6-0.7,3.2c-0.5,0.7-1.9,2.6-2.9,1.9c-1-0.7,1.2-1.7-0.5-2.9c-0.7-0.5-1.1,0.2-1.5,0.7
	c-1.7,2.4-1.4,2.4,0.3,3.6c3.4,2.3,4-0.6,5.4,0.3c0.5,0.4,0.4,1.1,0.1,1.6c-0.8,1.1-3,2.5-3.7,2.1c-0.1-0.1-0.3-0.3-0.7-0.6
	c-0.3-0.3-0.8-0.7-1.3-1l-6.8-4.7c-1.1-0.8-0.8-1.3-0.6-1.5c0.6-0.9,1.2,0.6,2.6-1.1c2.3-2.9,2.1-2.5,4-5.6c1.6-2.6-0.5-2.2,0.3-3.3
	c0.7-1,2,0.1,2.6,0.6L177.7,21.7z M183.2,29.9c1.4-1.5-0.3-1.8,0.5-2.7c0.6-0.7,1.6,0,2.1,0.5l4.8,4.4c4.1,3.8,3,7.5,0.6,10.2
	c-2.5,2.7-6.5,3.8-10.2,0.3c-0.6-0.6-1.1-1.1-1.6-1.5c-0.4-0.4-0.8-0.8-1.2-1.2c-0.4-0.4-0.8-0.8-1.3-1.1c-0.4-0.4-0.9-0.7-1.3-1.1
	c-0.5-0.5-0.9-1.3-0.3-1.9c1-1.1,1,1.2,3.1-0.9L183.2,29.9z M181.7,38.5c-0.7,0.7-0.9,1.2-0.1,1.9c1.8,1.7,3.9,0.1,5.3-1.3
	c3.2-3.4,2.4-5.2,1.3-6.2c-0.6-0.6-0.9-0.4-1.4,0.2L181.7,38.5z M39.6,193.4c1.8-1.8,2.1-2.3,2.2-2.7c0.1-0.7-0.4-1.3,0.1-1.9
	c1-1,3.9,1.9,4.1,2.2c0.8,0.9,2.5,2.7,1.5,3.6c-0.5,0.5-1-0.1-1.7,0c-0.6,0-1.9,1.3-2.9,2.2l-1.4,1.4c-2.6,2.5-2.3,2.6-2.2,3
	c0.1,0.6,0.4,1-0.1,1.4c-0.4,0.4-1.2,0.9-4.2-2.2c-0.6-0.6-2.3-2.4-1.4-3.3c0.5-0.4,1,0,1.5-0.1c0.4,0,1-0.4,3.1-2.3L39.6,193.4z
	 M53.6,204.4c0.1,0.3,0.2,1.2,0.5,1.4c0.4,0.3,0.9-0.3,1.1-0.6c0.3-0.4,0.8-1.1,1-1.5c0.3-0.8-0.7-1.3-0.1-2.1c0.8-1,2.4,0.3,3,0.8
	c0.7,0.5,2.5,1.8,1.6,2.9c-0.7,0.9-1.3-0.1-2.1,0.4c-0.6,0.4-1.4,1.4-1.9,2l-3.2,4.1c-0.6,0.7-2.2,2.9-3.2,2.1
	c-0.3-0.2-0.4-0.6-0.5-1l-1.4-8.2c-0.1-0.4-0.2-1.1-0.5-1.3c-0.5-0.4-1.3,0.6-1.6,1c-0.3,0.4-0.8,1-1,1.5c-0.6,1.2,0.6,1.5,0,2.2
	c-0.8,1.1-2.5-0.1-3.3-0.7c-0.7-0.6-2.3-1.9-1.5-3c0.7-0.8,1.3,0.2,2.3-0.7c0.6-0.6,1.5-1.6,2-2.3c0.9-1.1,1.8-2.3,2.5-3.6
	c1-1.8-0.6-2,0.1-3c0.9-1.1,3,0.6,3.7,1.2c1,0.8,1.1,1,1.3,2.2L53.6,204.4z M67.6,217.2c0-0.3,0-0.9-0.3-1.1
	c-0.6-0.2-1.4,2.3-1.7,2.9c-0.9,2,0.7,1.6,0.3,2.5c-0.5,1-2.4,0.2-3.1-0.1c-0.6-0.3-2.3-1.1-1.9-2c0.5-1,1.2,0.3,2-1.1
	c0.8-1.5,1.7-3.1,2.9-5.8c0.5-1.1,0.7-1.7,0.6-2.2c0-0.5-1-1-0.7-1.8c0.5-1,2.3-0.6,3.7,0.1c2.1,0.9,1.9,1.3,2.1,2.5
	c0.2,1.4,0,4.9,0.7,5.4c0.5,0.4,2.2-1.5,3.4-2.4c1.7-1.3,1.9-1.9,4.4-0.8c0.8,0.3,2.6,1.2,2.1,2.4c-0.3,0.7-1.2,0.5-1.7,1.1
	c-0.4,0.4-1.4,2.6-1.8,3.4c-0.1,0.3-0.9,2.3-1.6,4.1c-0.5,1.4,0.7,1.5,0.3,2.4c-0.5,1.2-3,0.1-3.8-0.3c-0.8-0.3-3.3-1.3-2.8-2.5
	c0.3-0.6,1.2-0.4,1.5-0.9c0.2-0.3,1.9-3.3,1.3-3.6c-0.6-0.2-1.9,1.1-2.7,1.9c-0.8,0.7-2.3,2.5-2.9,2.1c-0.3-0.2-0.4-0.2-0.5-3.1
	L67.6,217.2z M81,221.1c0.9-4.1,4.9-6.3,9.2-5.3c5.4,1.2,6.4,6.4,5.8,9c-1,4.2-5.3,6.1-9.3,5.2C82.5,229,80,225.3,81,221.1z
	 M88.5,218.5c-1.1-0.2-1.9,0.8-2.1,1.7c-0.4,1.7-0.3,6.6,1.8,7.1c1.2,0.3,1.9-0.6,2.2-1.7C90.8,223.8,90.8,219,88.5,218.5z
	 M107.8,223.1c0.2,0.2,0.8,0.8,1.2,0.8c0.5,0,0.6-0.8,0.6-1.1c0-0.5,0-1.4-0.1-1.8c-0.2-0.9-1.3-0.6-1.3-1.7
	c0.1-1.3,2.1-1.1,2.9-1.1c0.9,0,3.1,0,3,1.4c-0.1,1.1-1.1,0.7-1.5,1.6c-0.3,0.7-0.3,1.9-0.4,2.7l-0.2,5.2c0,0.9,0,3.6-1.4,3.6
	c-0.4,0-0.7-0.3-1-0.5l-5.9-5.8c-0.3-0.3-0.8-0.8-1.2-0.8c-0.6,0-0.7,1.3-0.7,1.7c0,0.6,0,1.3,0.1,1.8c0.2,1.3,1.3,0.9,1.3,1.8
	c-0.1,1.3-2.1,1.4-3.1,1.3c-0.9,0-3-0.3-2.9-1.6c0-1.1,1.2-0.6,1.4-1.9c0.2-0.9,0.3-2.1,0.3-3c0.1-1.4,0.1-2.9,0-4.3
	c-0.2-2-1.7-1.3-1.6-2.5c0.1-1.4,2.8-1.2,3.7-1.2c1.2,0.1,1.5,0.1,2.3,1L107.8,223.1z M123.5,217.3c0.9-0.1,1.2-0.2,1.5-0.3
	s0.4-0.2,0.8-0.2c0.8-0.1,2.6,1.2,2.8,3.4c0.1,1-0.3,1.7-1.3,1.8c-1.7,0.2-2-2.1-3-2c-0.8,0.1-0.6,1.2-0.5,1.3l0.7,6.1
	c0.3,2.4,2,1,2.1,2.4c0.1,0.6-0.2,1.5-3.9,2c-1,0.1-4.7,0.6-4.9-0.9c-0.1-1.1,1.2-0.8,1.5-1.6c0.1-0.4,0.1-1.6,0-2.1l-0.4-4.4
	c-0.2-2.1-0.6-2-0.9-2c-0.9,0.1-1,2.5-2.7,2.7c-0.8,0.1-1.3-0.6-1.4-1.3c-0.2-1.7,1-4.1,2.1-4.2c0.1,0,0.4,0,0.8,0
	c0.4,0,0.9,0,1.7-0.1L123.5,217.3z M130.4,220.5c-0.9-3-2-1.3-2.3-2.5c-0.3-1.1,1.1-1.6,1.9-1.9c0.4-0.1,0.8-0.2,1.2-0.3
	s0.8-0.2,1.2-0.3c0.6-0.2,1.2-0.4,1.8-0.6c0.6-0.2,1.2-0.4,1.8-0.6c2.2-0.6,5-0.4,5.7,2.1c0.3,1.2,0.1,2.4-0.8,3.3
	c-0.1,0.1-0.3,0.2-0.2,0.5s0.4,0.3,0.6,0.3c1.5,0.1,2.3,0.8,3.2,2.8c0.8,1.7,1.7,0.3,2,1.4c0.2,0.7-0.4,1.8-2.6,2.4
	c-3.1,0.9-4-0.7-5.3-3.1c-0.5-0.8-1.1-1.6-2.1-1.3c-0.4,0.1-0.6,0.2-0.2,1.4c0.2,0.6,0.4,1.3,0.7,1.8c0.4,0.8,1.3,0.3,1.6,1.2
	c0.2,0.7-0.1,1.3-3.2,2.3c-0.9,0.3-3.6,1.1-4.1-0.3c-0.3-1,1.3-0.7,0.6-3.2L130.4,220.5z M135.1,220c0.1,0.5,0.1,1,0.8,0.8
	c1.2-0.4,1.4-1.2,1.1-2.4c-0.3-0.9-0.8-1.8-1.9-1.5c-0.7,0.2-0.6,0.6-0.4,1.3L135.1,220z M150,208.9c2.4-1.2,2.6-1.7,2.9-1.8
	c1-0.5,2.3,1.1,2.7,1.9c0.3,0.6,0.4,1.4-0.3,1.8c-1.4,0.7-1.1-1.6-4.5,0.1c-2,1-1.6,1.2-0.6,3.3c0.5,1,0.6,1.1,1.7,0.5
	c1.4-0.7-0.6-2.2,0.7-2.8c1-0.5,2.1,1.5,2.4,2.2c0.4,0.7,1.3,3,0.2,3.5s-0.9-1.9-2.7-1c-0.8,0.4-0.4,1-0.1,1.6
	c1.3,2.6,1.4,2.4,3.3,1.5c3.7-1.8,1.4-3.8,2.9-4.5c0.6-0.3,1.2,0.2,1.4,0.7c0.6,1.2,0.7,3.9,0,4.2c-0.1,0.1-0.4,0.1-0.8,0.3
	c-0.4,0.2-0.9,0.3-1.6,0.6l-7.4,3.6c-1.2,0.6-1.5,0-1.6-0.2c-0.5-1,1.1-0.8,0.3-2.8c-1.4-3.4-1.2-3.1-2.9-6.2
	c-1.5-2.7-2.1-0.6-2.8-1.9c-0.5-1.1,1.1-1.6,1.8-2L150,208.9z M145.7,209.2c-0.4-0.8,0.8-1.6,0.5-2.1c-0.1-0.2-0.2-0.1-0.3-0.3
	c-0.2-0.5,1-1.1,1.3-1.3c0.6-0.3,2.3-0.9,2.7-0.1c0.2,0.5-0.4,2.8-2.8,4C146.5,209.6,146,209.7,145.7,209.2z M162,210
	c-0.3-1.5-0.6-3.4-1.6-4.7c-0.8-1.1-0.9-2.3,0.6-3.4c1.4-1,3.3-0.2,4.7,0.4c0.6,0.3,6.6,3.5,8.2,4.4c1.4,0.9,1.8-0.5,2.4,0.4
	c0.8,1.2-1.5,2.8-2.3,3.4c-2.3,1.7-3.7,2.6-4.5,1.6c-0.6-0.8,0.6-1.2,0.2-1.8c-0.5-0.7-1-0.5-3.6,1.4c-0.8,0.6-1.3,1-0.8,1.8
	c0.5,0.6,1.2-0.5,1.8,0.3c0.7,1-1.1,2.2-1.7,2.7c-2.3,1.7-2.9,1.4-3.2,0.8c-0.5-0.8,0.5-1.2,0.6-2.1c0-0.7-0.2-1.7-0.3-2.4L162,210z
	 M166.2,208.8c0.2-0.1,0.7-0.4,0.5-0.7c-0.2-0.3-1.2-0.8-1.5-0.9c-0.3-0.2-1-0.6-1.4-0.3s0,1.5,0.1,1.7s0.2,1.1,0.4,1.3
	c0.2,0.3,0.6-0.1,0.7-0.2L166.2,208.8z M179.5,205.6c-0.5,0.5-1.2,1.2-1.8,0.5c-0.9-0.9,1-1.2-0.6-2.9c-1-1.1-1.9-2-2.7-2.8
	c-0.8-0.9-1.7-1.6-2.5-2.4c-1.2-1.2-1.8,0.7-2.6-0.1c-1-1,1.2-3.3,1.9-4c2.8-2.8,3.5-2.5,3.9-2c0.8,0.8-0.9,1.3,0.4,2.6l4.5,4.5
	c1,1,1.7,1.4,2.7,0.4c2.4-2.4-0.4-3.6,0.6-4.5c0.6-0.6,1.6-0.2,2.1,0.4c1.1,1.1,1.7,3.3,1,4c-0.3,0.3-0.5,0.4-0.8,0.6
	c-0.3,0.2-0.7,0.5-1.2,1L179.5,205.6z M29,188.7c-0.5,0-1-0.2-1.4-0.6c-0.4-0.4-0.6-0.9-0.6-1.4c0-0.1,0-0.3,0-0.4
	c0-0.1,0.1-0.2,0.1-0.4c0-0.1,0.1-0.2,0.2-0.3s0.1-0.2,0.2-0.3c0.8-0.8,2.1-0.8,2.8,0c0.1,0.1,0.2,0.2,0.2,0.3
	c0.1,0.1,0.1,0.2,0.2,0.3c0,0.1,0.1,0.2,0.1,0.4c0,0.1,0,0.3,0,0.4c0,0.5-0.2,1-0.6,1.4c-0.1,0.1-0.2,0.2-0.3,0.2s-0.2,0.1-0.3,0.2
	c-0.1,0.1-0.2,0.1-0.4,0.1C29.3,188.7,29.1,188.7,29,188.7z M21.2,180.3L21.2,180.3L21.2,180.3c-0.7-0.9-0.5-2.1,0.4-2.8l0,0
	c0.9-0.6,2.1-0.5,2.8,0.4l0,0c0.7,0.9,0.5,2.1-0.4,2.8l0,0c-0.4,0.3-0.8,0.4-1.2,0.4l0,0C22.2,181.1,21.6,180.8,21.2,180.3z
	 M15.7,172c-0.6-1-0.3-2.2,0.7-2.8l0,0c0.9-0.6,2.2-0.3,2.7,0.7l0,0c0.6,0.9,0.3,2.2-0.7,2.8l0,0c-0.3,0.2-0.7,0.3-1,0.3l0,0
	C16.7,172.9,16.1,172.6,15.7,172z M10.9,163.2L10.9,163.2L10.9,163.2c-0.5-1-0.1-2.2,0.9-2.7l0,0c1-0.5,2.2-0.1,2.7,0.9l0,0
	c0.5,1,0.1,2.2-0.9,2.7l0,0c-0.3,0.1-0.6,0.2-0.9,0.2l0,0C12,164.3,11.3,163.9,10.9,163.2z M7,154L7,154L7,154
	c-0.4-1,0.1-2.2,1.2-2.6l0,0c1-0.4,2.2,0.1,2.6,1.2l0,0c0.4,1-0.1,2.2-1.2,2.6l0,0c-0.2,0.1-0.5,0.1-0.7,0.1l0,0
	C8,155.3,7.3,154.8,7,154z M3.9,144.5c-0.3-1.1,0.3-2.2,1.4-2.5l0,0c1.1-0.3,2.2,0.3,2.5,1.4l0,0c0.3,1.1-0.3,2.2-1.4,2.5l0,0
	c-0.2,0-0.4,0.1-0.5,0.1l0,0C5,145.9,4.2,145.3,3.9,144.5z M1.7,134.7L1.7,134.7L1.7,134.7c-0.2-1.1,0.5-2.1,1.6-2.3l0,0
	c1.1-0.2,2.1,0.5,2.3,1.6l0,0c0.2,1.1-0.5,2.1-1.6,2.3l0,0c-0.1,0-0.2,0-0.3,0l0,0C2.7,136.4,1.9,135.7,1.7,134.7z M0.4,124.8
	c-0.1-1.1,0.7-2.1,1.8-2.2l0,0c1.1-0.1,2.1,0.7,2.2,1.8l0,0c0.1,1.1-0.7,2.1-1.8,2.2l0,0c0,0-0.1,0-0.2,0l0,0
	C1.4,126.6,0.5,125.8,0.4,124.8z M2,116.8c-1.1,0-2-0.9-2-2l0,0c0-1.1,0.9-2,2-2l0,0c1.1,0,2,0.9,2,2l0,0C4,115.9,3.2,116.8,2,116.8
	L2,116.8L2,116.8z M2.4,107c-1.1-0.1-1.9-1.1-1.8-2.2l0,0c0.1-1.1,1.1-1.9,2.2-1.8l0,0c1.1,0.1,1.9,1.1,1.8,2.2l0,0
	c-0.1,1-1,1.8-2,1.8l0,0C2.5,107,2.4,107,2.4,107z M3.6,97.2C2.5,97,1.8,96,2,94.9l0,0c0.2-1.1,1.2-1.8,2.3-1.6l0,0
	c1.1,0.2,1.8,1.3,1.6,2.4l0,0c-0.2,1-1,1.6-2,1.6l0,0C3.8,97.3,3.7,97.3,3.6,97.2z M5.7,87.6c-1.1-0.3-1.7-1.4-1.4-2.5l0,0
	c0.3-1.1,1.4-1.7,2.5-1.4l0,0c1.1,0.3,1.7,1.4,1.4,2.5l0,0c-0.2,0.9-1,1.5-1.9,1.5l0,0C6,87.7,5.9,87.7,5.7,87.6z M8.6,78.3
	c-1-0.4-1.5-1.6-1.1-2.6l0,0c0.4-1,1.6-1.5,2.6-1.1l0,0c1,0.4,1.5,1.6,1.1,2.6l0,0c-0.3,0.8-1.1,1.3-1.9,1.3l0,0
	C9.1,78.4,8.9,78.4,8.6,78.3z M12.5,69.2c-1-0.5-1.4-1.7-0.9-2.7l0,0l0,0l0,0c0.5-1,1.7-1.4,2.7-0.9l0,0c1,0.5,1.4,1.7,0.9,2.7l0,0
	c-0.4,0.7-1.1,1.1-1.8,1.1l0,0C13.1,69.4,12.8,69.4,12.5,69.2z M17.1,60.6c-0.9-0.6-1.2-1.8-0.7-2.8l0,0l0,0l0,0
	c0.6-0.9,1.8-1.2,2.8-0.6l0,0c0.9,0.6,1.2,1.8,0.6,2.8l0,0c-0.4,0.6-1,0.9-1.7,0.9l0,0C17.8,60.9,17.4,60.8,17.1,60.6z M23.7,52.7
	c-0.5,0-1-0.2-1.4-0.6s-0.6-0.9-0.6-1.4c0-0.1,0-0.3,0-0.4s0.1-0.2,0.1-0.4c0-0.1,0.1-0.2,0.2-0.3s0.2-0.2,0.2-0.3
	c0.1-0.1,0.2-0.2,0.3-0.2c0.1-0.1,0.2-0.1,0.3-0.2c0.1-0.1,0.2-0.1,0.4-0.1c0.3,0,0.5,0,0.8,0c0.1,0,0.3,0.1,0.4,0.1
	s0.2,0.1,0.3,0.2c0.1,0.1,0.2,0.1,0.3,0.2c0.1,0.1,0.2,0.2,0.2,0.3c0.1,0.1,0.1,0.2,0.2,0.3c0,0.1,0.1,0.2,0.1,0.4
	c0,0.1,0,0.3,0,0.4c0,0.5-0.2,1-0.6,1.4c-0.1,0.1-0.2,0.2-0.3,0.2c-0.1,0.1-0.2,0.1-0.3,0.2c-0.1,0.1-0.2,0.1-0.4,0.1
	C24,52.7,23.9,52.7,23.7,52.7z M189.8,188.7c-0.1,0-0.3,0-0.4,0s-0.2-0.1-0.4-0.1c-0.1,0-0.2-0.1-0.3-0.2c-0.1-0.1-0.2-0.1-0.3-0.2
	c-0.1-0.1-0.2-0.2-0.2-0.3c-0.1-0.1-0.1-0.2-0.2-0.3c0-0.1-0.1-0.2-0.1-0.4c0-0.1,0-0.3,0-0.4c0-0.5,0.2-1,0.6-1.4
	c0.1-0.1,0.2-0.2,0.3-0.2c0.1-0.1,0.2-0.1,0.3-0.2c0.1-0.1,0.2-0.1,0.4-0.1c0.7-0.1,1.3,0.1,1.8,0.6c0.4,0.4,0.6,0.9,0.6,1.4
	c0,0.1,0,0.3,0,0.4c0,0.1-0.1,0.2-0.1,0.4c0,0.1-0.1,0.2-0.2,0.3s-0.1,0.2-0.2,0.3C190.9,188.5,190.4,188.7,189.8,188.7z
	 M194.8,180.7c-0.9-0.7-1.1-1.9-0.4-2.8l0,0c0.6-0.9,1.9-1.1,2.8-0.4l0,0c0.9,0.7,1.1,1.9,0.4,2.8l0,0c-0.4,0.5-1,0.8-1.6,0.8l0,0
	C195.6,181.1,195.2,181,194.8,180.7z M200.4,172.6c-1-0.6-1.2-1.8-0.7-2.8l0,0l0,0l0,0c0.6-0.9,1.8-1.2,2.7-0.7l0,0
	c1,0.6,1.2,1.8,0.7,2.8l0,0c-0.4,0.6-1,1-1.7,1l0,0C201.1,172.9,200.7,172.8,200.4,172.6z M205.3,164.1c-1-0.5-1.4-1.7-0.9-2.7l0,0
	c0.5-1,1.7-1.4,2.7-0.9l0,0c1,0.5,1.4,1.7,0.9,2.7l0,0c-0.4,0.7-1.1,1.1-1.8,1.1l0,0C205.8,164.3,205.5,164.2,205.3,164.1z
	 M209.3,155.2c-1-0.4-1.6-1.5-1.2-2.6l0,0c0.4-1,1.5-1.6,2.6-1.2l0,0c1,0.4,1.5,1.5,1.2,2.6l0,0c-0.3,0.8-1.1,1.3-1.9,1.3l0,0
	C209.8,155.3,209.5,155.2,209.3,155.2z M212.5,145.9c-1.1-0.3-1.7-1.4-1.4-2.5l0,0c0.3-1.1,1.4-1.7,2.5-1.4l0,0
	c1.1,0.3,1.7,1.4,1.4,2.5l0,0c-0.2,0.9-1,1.5-1.9,1.5l0,0C212.8,145.9,212.7,145.9,212.5,145.9z M214.8,136.3
	c-1.1-0.2-1.8-1.2-1.6-2.3l0,0c0.2-1.1,1.2-1.8,2.3-1.6l0,0c1.1,0.2,1.8,1.2,1.6,2.3l0,0c-0.2,1-1,1.6-2,1.6l0,0
	C215,136.3,214.9,136.3,214.8,136.3z M216.3,126.6c-1.1-0.1-1.9-1.1-1.8-2.2l0,0l0,0l0,0c0.1-1.1,1.1-1.9,2.2-1.8l0,0
	c1.1,0.1,1.9,1.1,1.8,2.2l0,0c-0.1,1-1,1.8-2,1.8l0,0C216.4,126.6,216.3,126.6,216.3,126.6z M214.8,114.8c0-1.1,0.9-2,2-2l0,0
	c1.1,0,2,0.9,2,2l0,0c0,1.1-0.9,2-2,2l0,0l0,0l0,0C215.7,116.8,214.8,115.9,214.8,114.8z M214.3,105.2c-0.1-1.1,0.7-2.1,1.8-2.2l0,0
	c1.1-0.1,2.1,0.7,2.2,1.8l0,0c0.1,1.1-0.7,2.1-1.8,2.2l0,0c-0.1,0-0.1,0-0.2,0l0,0C215.3,107,214.4,106.2,214.3,105.2z M212.9,95.6
	c-0.2-1.1,0.5-2.1,1.6-2.3l0,0c1.1-0.2,2.1,0.5,2.3,1.6l0,0c0.2,1.1-0.5,2.1-1.6,2.3l0,0c-0.1,0-0.2,0-0.4,0l0,0
	C214,97.3,213.1,96.6,212.9,95.6z M210.7,86.3c-0.3-1.1,0.3-2.2,1.4-2.5l0,0c1.1-0.3,2.2,0.3,2.5,1.4l0,0c0.3,1.1-0.3,2.2-1.4,2.5
	l0,0c-0.2,0.1-0.4,0.1-0.5,0.1l0,0C211.7,87.7,210.9,87.2,210.7,86.3z M207.6,77.1L207.6,77.1L207.6,77.1c-0.4-1,0.1-2.2,1.1-2.6
	l0,0c1-0.4,2.2,0.1,2.6,1.1l0,0c0.4,1-0.1,2.2-1.1,2.6l0,0c-0.2,0.1-0.5,0.1-0.7,0.1l0,0C208.7,78.4,207.9,77.9,207.6,77.1z
	 M203.7,68.3c-0.5-1-0.1-2.2,0.9-2.7l0,0c1-0.5,2.2-0.1,2.7,0.9l0,0c0.5,1,0.1,2.2-0.9,2.7l0,0c-0.3,0.1-0.6,0.2-0.9,0.2l0,0
	C204.7,69.4,204,69,203.7,68.3z M199,59.9c-0.6-0.9-0.3-2.2,0.6-2.8l0,0c0.9-0.6,2.2-0.3,2.8,0.6l0,0c0.6,0.9,0.3,2.2-0.7,2.8l0,0
	c-0.3,0.2-0.7,0.3-1,0.3l0,0C200,60.9,199.4,60.5,199,59.9z M195.1,52.7c-0.1,0-0.3,0-0.4,0c-0.1,0-0.3-0.1-0.4-0.1
	c-0.1,0-0.2-0.1-0.3-0.2s-0.2-0.1-0.3-0.2c-0.4-0.4-0.6-0.9-0.6-1.4s0.2-1,0.6-1.4c0.1-0.1,0.2-0.2,0.3-0.2c0.1-0.1,0.2-0.1,0.3-0.2
	s0.2-0.1,0.4-0.1c0.2,0,0.5,0,0.8,0c0.1,0,0.2,0.1,0.4,0.1c0.1,0,0.2,0.1,0.4,0.2c0.1,0.1,0.2,0.1,0.3,0.2s0.2,0.2,0.2,0.3
	s0.1,0.2,0.2,0.3c0,0.1,0.1,0.2,0.1,0.4c0,0.1,0,0.3,0,0.4c0,0.5-0.2,1-0.6,1.4c-0.1,0.1-0.2,0.2-0.3,0.2c-0.1,0.1-0.2,0.1-0.4,0.2
	c-0.1,0.1-0.2,0.1-0.4,0.1C195.4,52.7,195.2,52.7,195.1,52.7z"/>
</svg>
