<svg version="1.1" xmlns="http://www.w3.org/2000/svg"
	 viewBox="0 0 165.267 227.212" fill="currentColor" stroke="none">
	<path d="M82.971,197.312c0,0-17.128,39.394-50.184,27.747c-28.089-9.934-28.775-47.444-4.282-70.052
	c34.941-32.2,54.466-53.61,54.466-53.61s19.526,21.41,54.466,53.61c24.493,22.609,23.808,60.118-4.282,70.052
	C100.098,236.705,82.971,197.312,82.971,197.312z M82.971,0C70.296,0,60.019,16.785,60.019,37.51s10.277,37.51,22.951,37.51
	s22.951-16.785,22.951-37.51S95.645,0,82.971,0z M17.543,37.681C5.039,39.736-2.497,57.892,0.757,78.445
	c3.254,20.382,16.1,35.454,28.603,33.399S49.4,91.633,46.146,71.08C42.892,50.698,30.046,35.626,17.543,37.681z M119.11,71.08
	c-3.254,20.382,4.111,38.709,16.785,40.764c12.675,2.055,25.349-12.846,28.603-33.399c3.254-20.382-4.111-38.709-16.785-40.764
	C135.381,35.626,122.536,50.698,119.11,71.08z"/>
</svg>
