<?xml version="1.0" encoding="utf-8"?>
<!-- Generator: Adobe Illustrator 24.3.0, SVG Export Plug-In . SVG Version: 6.00 Build 0)  -->
<svg version="1.1" id="Layer_1" xmlns="http://www.w3.org/2000/svg" xmlns:xlink="http://www.w3.org/1999/xlink" x="0px" y="0px"
	 viewBox="0 0 274.457 239.751" style="enable-background:new 0 0 274.457 239.751;" xml:space="preserve">
<style type="text/css">
	.st0{fill:#B4DBEF;}
	.st1{fill:#FFFFFF;}
</style>
<path class="st0" d="M63.945,130.74c-3.088,0.923-6.059,2.358-8.767,4.34l-9.842,7.204c-5.943,4.35-14.223-0.43-13.427-7.752
	l1.319-12.125c1.357-12.482-5.527-24.405-17.015-29.47l-11.16-4.921c-6.739-2.971-6.739-12.533,0-15.504l11.16-4.921
	c11.488-5.065,18.372-16.989,17.015-29.47L31.91,25.996c-0.796-7.321,7.484-12.102,13.427-7.752l9.842,7.204
	c10.131,7.416,23.898,7.416,34.029,0l9.842-7.204c4.023-2.945,9.108-1.698,11.733,1.682c-0.033,0.049-0.067,0.094-0.1,0.143
	c-17.97,26.738,4.323,48.363,4.323,48.363c0.307,1.825,0.706,3.607,1.187,5.343c-5.881,2.631-11.377,5.732-16.452,9.221
	C82.392,94.923,70.285,112.001,63.945,130.74z M222.128,52.816c0,0,16.008,0.06,26.757-3.731
	c15.666-5.525,23.507-20.917,13.133-30.844c-10.374-9.927-22.67,0.769-22.67,0.769 M239.466,19.069c0,0,1.423-16.235-12.706-18.79
	c-14.129-2.555-21.97,12.837-17.228,28.758c3.254,10.924,12.713,23.838,12.713,23.838"/>
<path class="st1" d="M266.538,121.701c-2.68-6.859-6.077-13.086-10.099-18.624c0.002-0.16,0.012-0.319,0.012-0.48
	c0-4.882-1.437-12.858-1.74-14.486l2.984-15.689c0.34-1.197,0.021-2.485-0.847-3.385c-0.891-0.926-2.217-1.291-3.453-0.948
	c-5.449,1.495-11.018,3.342-16.561,5.492c-3.701-1.487-7.615-2.241-11.643-2.241s-7.941,0.754-11.643,2.241
	c-5.539-2.149-11.106-3.996-16.56-5.492c-0.177-0.049-0.356-0.08-0.535-0.1c-1.485-0.401-2.964-0.773-4.44-1.125
	c0.17-3.669-0.041-7.441-0.682-11.255v-0.001c-1.306-7.774-4.247-14.79-8.296-20.69c3.412-1.822,6.31-4.14,8.443-7.062
	c7.96-10.908-1.895-23.545-1.995-23.671l-1.418-1.783l-1.077,2.007c-0.039,0.071-3.961,7.118-14.235,4.792
	c-1.53-0.347-3.473-0.924-5.722-1.592c-14.504-4.306-41.501-12.324-57.597,11.624c-17.193,25.583,1.37,46.935,4.177,49.918
	c0.227,1.281,0.492,2.544,0.804,3.782c-5.359,2.484-10.551,5.405-15.527,8.827c-29.608,20.359-45.601,56.694-40.74,92.568
	c3.472,25.625,14.392,32.65,18.925,34.481c1.818,0.734,3.654,1.097,5.437,1.097c2.833,0,5.531-0.917,7.808-2.715
	c3.175-2.507,4.938-5.429,5.769-8.838c1.465,4.678,3.289,9.26,5.479,13.699c11.442,23.189,24.028,26.376,28.909,26.67
	c0.324,0.02,0.646,0.029,0.965,0.029c0.939,0,1.842-0.106,2.72-0.271c0.243,0.17,0.538,0.272,0.858,0.272
	c0.597,0,1.109-0.352,1.351-0.858c2.515-0.933,4.64-2.607,6.148-4.917c4.724-7.231,2.808-14.197-1.815-23.092
	c-1.146-2.205-2.486-4.94-3.863-8.07h56.949c-1.376,3.131-2.717,5.865-3.863,8.07c-4.623,8.895-6.539,15.86-1.815,23.092
	c2.419,3.703,6.419,5.774,11.077,5.774c0.318,0,0.641-0.01,0.965-0.029c4.881-0.294,17.467-3.48,28.909-26.67
	c2.198-4.454,4.02-9.022,5.488-13.664c0.834,3.394,2.595,6.304,5.759,8.802c3.708,2.93,8.535,3.517,13.244,1.618
	c4.533-1.831,15.453-8.856,18.925-34.481C274.907,156.405,272.798,137.715,266.538,121.701z M236.231,76.578l0.564,0.239
	l0.569-0.224c5.631-2.206,11.291-4.095,16.823-5.612c0.257-0.067,0.423,0.056,0.5,0.137c0.077,0.08,0.195,0.251,0.117,0.499
	l-3.148,16.493l0.054,0.281c0.018,0.091,1.74,9.149,1.74,14.206c0,7.881-3.164,15.195-8.909,20.595
	c-5.742,5.396-13.263,8.099-21.154,7.607c-14.229-0.883-25.838-12.744-26.429-27.005c-0.228-5.486,1.694-15.297,1.714-15.395
	l0.057-0.286l-3.106-16.327l-0.043-0.171c-0.078-0.247,0.039-0.418,0.116-0.498c0.062-0.064,0.182-0.156,0.356-0.156
	c0.044,0,0.093,0.006,0.145,0.02c5.535,1.52,11.195,3.407,16.822,5.612l0.569,0.224l0.564-0.239
	c3.495-1.485,7.209-2.238,11.039-2.238S232.736,75.092,236.231,76.578z M188.375,56.105L188.375,56.105
	c3.925,23.361-9.007,45.077-28.827,48.407c-19.76,3.324-39.004-12.86-43.019-36.094l5.344-30.789
	c9.166,2.38,39.706,6.631,58.431-1.417C184.249,41.842,187.114,48.601,188.375,56.105z M195.062,198.814h-59.495
	c-6.944-16.88-13.582-42.809,0.022-61.681c2.746-3.809,5.983-7.208,9.564-10.194c2.483,5.007,7.635,8.465,13.591,8.465
	c4.348,0,8.492-1.868,11.371-5.126c2.64-2.986,3.97-6.884,3.766-10.837c8.382,4.068,15.696,10.115,21.158,17.691
	C208.644,156.005,202.006,181.934,195.062,198.814z M170.83,118.732c0.428,3.462-0.651,6.946-2.961,9.561
	c-2.311,2.613-5.636,4.112-9.124,4.112c-6.714,0-12.177-5.463-12.177-12.177v-13.195c2.556,0.592,5.172,0.911,7.821,0.911
	c1.873,0,3.762-0.155,5.655-0.473c3.189-0.536,6.21-1.516,9.036-2.862L170.83,118.732z M111.928,20.906
	c7.846-11.675,18.687-15.067,29.203-15.067c9.405,0,18.55,2.716,25.05,4.646c2.3,0.684,4.285,1.272,5.911,1.642
	c6.473,1.466,10.876-0.285,13.433-2.014c1.184-0.8,2.09-1.67,2.747-2.415c2.107,3.38,5.934,11.337,0.786,18.391
	c-13.226,18.123-60.853,10.672-67.88,8.212l-1.67-0.584l-5.445,31.373C109.207,59.018,98.116,41.456,111.928,20.906z
	 M140.007,231.335c-0.894,1.369-2.091,2.429-3.487,3.177v-8.615c0-0.828-0.672-1.5-1.5-1.5s-1.5,0.672-1.5,1.5v9.67
	c-0.91,0.165-1.868,0.221-2.862,0.16c-0.676-0.041-1.357-0.146-2.041-0.283v-9.547c0-0.828-0.672-1.5-1.5-1.5s-1.5,0.672-1.5,1.5
	v8.658c-7.565-2.995-15.267-11.486-21.359-23.832c-3.958-8.022-6.692-16.522-8.199-25.218c-0.039-0.262-0.073-0.519-0.115-0.785
	l-0.017,0.003c-2.751-16.712-0.973-34.123,5.419-50.269c0.305-0.77-0.072-1.642-0.843-1.946c-0.766-0.307-1.641,0.07-1.946,0.843
	c-6.699,16.921-8.486,35.19-5.451,52.685c1.267,8.593,0.832,14.476-4.645,18.802c-0.525,0.414-1.089,0.746-1.669,1.036v-9.434
	c0-0.828-0.672-1.5-1.5-1.5s-1.5,0.672-1.5,1.5v10.365c-1.584,0.208-3.256,0.019-4.929-0.552c0.015-0.085,0.026-0.171,0.026-0.26
	v-9.553c0-0.828-0.672-1.5-1.5-1.5s-1.5,0.672-1.5,1.5v8.382c-7.274-4.516-12.714-15.766-14.765-30.895
	c-4.709-34.764,10.782-69.97,39.467-89.693c4.83-3.321,9.724-6.106,14.648-8.429c4.678,14.945,15.518,26.25,28.331,30.404v14.021
	c0,1.281,0.177,2.518,0.477,3.707c-4.107,3.302-7.784,7.138-10.889,11.445c-18.123,25.14-2.621,61.445,4.885,75.888
	C142.271,219.407,143.949,225.3,140.007,231.335z M226.373,210.723c-6.145,12.452-13.927,20.976-21.555,23.9v-9.627
	c0-0.828-0.672-1.5-1.5-1.5s-1.5,0.672-1.5,1.5v10.494c-0.618,0.116-1.234,0.2-1.846,0.237c-1.177,0.071-2.299-0.04-3.358-0.286
	c0.186-0.25,0.301-0.557,0.301-0.892v-9.553c0-0.828-0.672-1.5-1.5-1.5s-1.5,0.672-1.5,1.5v9.402
	c-1.311-0.742-2.441-1.761-3.292-3.063c-3.942-6.035-2.265-11.929,1.966-20.068c7.506-14.442,23.008-50.748,4.885-75.888
	c-6.119-8.488-14.43-15.18-23.968-19.447l-1.591-12.84c10.911-6.49,18.324-18.842,19.857-33.116
	c0.005,0.001,0.009,0.002,0.014,0.003l3.888,18.127c-0.33,1.726-1.935,10.452-1.713,15.813
	c0.654,15.775,13.498,28.897,29.241,29.874c0.675,0.042,1.347,0.062,2.016,0.062c1.263,0,2.512-0.083,3.746-0.229
	c6.662,16.264,8.654,33.943,5.79,51.104l-0.068-0.011c-0.111,0.71-0.209,1.403-0.299,2.086
	C232.831,194.986,230.169,203.029,226.373,210.723z M269.506,173.924c-2.168,15.996-8.123,27.661-16.031,31.606v-9.994
	c0-0.828-0.672-1.5-1.5-1.5s-1.5,0.672-1.5,1.5v11.077c-1.933,0.426-3.83,0.327-5.561-0.283c0.396-0.27,0.657-0.725,0.657-1.24
	v-9.554c0-0.828-0.672-1.5-1.5-1.5s-1.5,0.672-1.5,1.5v9.554c0,0.008,0.002,0.015,0.002,0.023c-0.134-0.095-0.275-0.174-0.405-0.277
	c-5.188-4.097-5.852-9.592-4.831-17.463c3.458-18.16,1.608-36.971-5.336-54.26c5.418-1.195,10.428-3.82,14.594-7.735
	c4.961-4.663,8.238-10.845,9.389-17.483C266.849,124.193,273.187,146.758,269.506,173.924z M160.661,56.614
	c-0.462-0.688-0.279-1.619,0.408-2.082c0.687-0.46,1.618-0.279,2.082,0.408c0.872,1.298,2.198,2.178,3.732,2.479
	c1.535,0.301,3.094-0.015,4.393-0.888c1.298-0.873,2.178-2.198,2.479-3.733c0.159-0.813,0.941-1.35,1.76-1.184
	c0.812,0.158,1.343,0.946,1.184,1.76c-0.453,2.321-1.784,4.326-3.748,5.646c-1.478,0.994-3.181,1.51-4.923,1.51
	c-0.571,0-1.146-0.055-1.72-0.167C163.986,59.908,161.981,58.577,160.661,56.614z M145.858,58.374
	c-0.455,2.321-1.786,4.326-3.748,5.646c-1.478,0.994-3.181,1.51-4.923,1.51c-0.571,0-1.146-0.055-1.72-0.167
	c-2.321-0.455-4.326-1.786-5.646-3.749c-0.462-0.688-0.279-1.619,0.408-2.082c0.687-0.459,1.619-0.28,2.082,0.408
	c0.872,1.298,2.198,2.178,3.732,2.479c1.534,0.302,3.095-0.015,4.393-0.888c1.297-0.872,2.177-2.198,2.479-3.734
	c0.159-0.812,0.942-1.346,1.761-1.183C145.488,56.773,146.018,57.561,145.858,58.374z M215.124,111.917
	c0.854,0.854,1.99,1.325,3.196,1.325c2.493,0,4.521-2.028,4.521-4.521c0-0.406,0.163-0.774,0.426-1.044
	c-1.604-0.144-3.136-0.771-4.36-1.829c-1.088-0.941-0.444-2.732,0.993-2.769l8.241-0.211c1.426-0.037,2.177,1.706,1.15,2.697
	c-0.63,0.608-1.375,1.119-2.222,1.495c-0.575,0.256-1.167,0.417-1.76,0.524c0.322,0.275,0.531,0.679,0.531,1.136
	c0,2.493,2.028,4.521,4.521,4.521c1.207,0,2.342-0.471,3.196-1.324c0.586-0.586,1.535-0.586,2.121,0s0.586,1.535,0,2.121
	c-1.421,1.421-3.309,2.203-5.317,2.203c-2.464,0-4.648-1.197-6.021-3.033c-1.373,1.837-3.557,3.033-6.021,3.033
	c-2.007,0-3.896-0.782-5.317-2.202c-0.586-0.586-0.586-1.536-0.001-2.122C213.588,111.333,214.538,111.333,215.124,111.917z
	 M151.051,51.33c-0.326-0.762,0.026-1.644,0.788-1.97c0.761-0.324,1.644,0.026,1.97,0.788l8.83,20.684
	c0.045,0.226,0.395,2.256-1.197,4.041c-1.396,1.563-3.775,2.352-7.091,2.352c-0.646,0-1.328-0.03-2.046-0.09
	c-0.825-0.069-1.438-0.795-1.37-1.62c0.069-0.825,0.802-1.424,1.62-1.37c4.414,0.37,6.038-0.613,6.615-1.232
	c0.502-0.538,0.541-1.145,0.531-1.399L151.051,51.33z M164.689,84.081c0.618,0.551,0.673,1.499,0.121,2.117
	c-2.33,2.613-5.063,3.578-7.779,3.578c-4.542,0-9.033-2.698-11.503-4.894c-0.618-0.55-0.674-1.496-0.125-2.115
	c0.551-0.619,1.498-0.678,2.117-0.128c0.374,0.331,9.256,8.053,15.052,1.562C163.122,83.583,164.069,83.526,164.689,84.081z"/>
</svg>
